<?xml version="1.0" encoding="utf-8" standalone="no"?>
<!DOCTYPE svg PUBLIC "-//W3C//DTD SVG 1.1//EN"
  "http://www.w3.org/Graphics/SVG/1.1/DTD/svg11.dtd">
<svg xmlns:xlink="http://www.w3.org/1999/xlink" width="1080pt" height="1080pt" viewBox="0 0 1080 1080" xmlns="http://www.w3.org/2000/svg" version="1.1">
 <metadata>
  <rdf:RDF xmlns:dc="http://purl.org/dc/elements/1.1/" xmlns:cc="http://creativecommons.org/ns#" xmlns:rdf="http://www.w3.org/1999/02/22-rdf-syntax-ns#">
   <cc:Work>
    <dc:type rdf:resource="http://purl.org/dc/dcmitype/StillImage"/>
    <dc:date>2023-12-21T15:31:32.162251</dc:date>
    <dc:format>image/svg+xml</dc:format>
    <dc:creator>
     <cc:Agent>
      <dc:title>Matplotlib v3.7.1, https://matplotlib.org/</dc:title>
     </cc:Agent>
    </dc:creator>
   </cc:Work>
  </rdf:RDF>
 </metadata>
 <defs>
  <style type="text/css">*{stroke-linejoin: round; stroke-linecap: butt}</style>
 </defs>
 <g id="figure_1">
  <g id="patch_1">
   <path d="M 0 1080 
L 1080 1080 
L 1080 0 
L 0 0 
z
" style="fill: #ffffff"/>
  </g>
  <g id="axes_1">
   <g id="patch_2">
    <path d="M 969.3 545.4 
C 969.3 490.797644 958.544527 436.726228 937.64911 386.280229 
C 916.753693 335.83423 886.124696 289.994696 847.515 251.385 
C 808.905304 212.775304 763.06577 182.146307 712.619771 161.25089 
C 662.173772 140.355473 608.102356 129.6 553.5 129.6 
C 498.897644 129.6 444.826228 140.355473 394.380229 161.25089 
C 343.93423 182.146307 298.094696 212.775304 259.485 251.385 
C 220.875304 289.994696 190.246307 335.83423 169.35089 386.280229 
C 148.455473 436.726228 137.7 490.797644 137.7 545.4 
C 137.7 600.002356 148.455473 654.073772 169.35089 704.519771 
C 190.246307 754.96577 220.875304 800.805304 259.485 839.415 
C 298.094696 878.024696 343.93423 908.653693 394.380229 929.54911 
C 444.826228 950.444527 498.897644 961.2 553.5 961.2 
C 608.102356 961.2 662.173772 950.444527 712.619771 929.54911 
C 763.06577 908.653693 808.905304 878.024696 847.515 839.415 
C 886.124696 800.805304 916.753693 754.96577 937.64911 704.519771 
C 958.544527 654.073772 969.3 600.002356 969.3 545.4 
M 553.5 545.4 
C 553.5 545.4 553.5 545.4 553.5 545.4 
C 553.5 545.4 553.5 545.4 553.5 545.4 
C 553.5 545.4 553.5 545.4 553.5 545.4 
C 553.5 545.4 553.5 545.4 553.5 545.4 
C 553.5 545.4 553.5 545.4 553.5 545.4 
C 553.5 545.4 553.5 545.4 553.5 545.4 
C 553.5 545.4 553.5 545.4 553.5 545.4 
C 553.5 545.4 553.5 545.4 553.5 545.4 
C 553.5 545.4 553.5 545.4 553.5 545.4 
C 553.5 545.4 553.5 545.4 553.5 545.4 
C 553.5 545.4 553.5 545.4 553.5 545.4 
C 553.5 545.4 553.5 545.4 553.5 545.4 
C 553.5 545.4 553.5 545.4 553.5 545.4 
C 553.5 545.4 553.5 545.4 553.5 545.4 
C 553.5 545.4 553.5 545.4 553.5 545.4 
C 553.5 545.4 553.5 545.4 553.5 545.4 
z
" style="fill: #ffffff"/>
   </g>
   <g id="patch_3">
    <path d="M 516.706006 428.772159 
C 506.170178 432.096024 496.133174 436.832278 486.869235 442.851512 
C 477.605296 448.870746 469.199573 456.117634 461.881737 464.394167 
L 333.616168 350.986 
C 351.178975 331.12232 371.352712 313.72979 393.586164 299.283629 
C 415.819617 284.837468 439.908428 273.470458 465.194414 265.493183 
z
" clip-path="url(#p7ccaceee06)" style="fill: #c7c8ca"/>
   </g>
   <g id="patch_4">
    <path d="M 459.493151 467.178752 
C 452.426866 475.671064 446.543813 485.081868 442.004735 495.154033 
C 437.465658 505.226198 434.312276 515.867145 432.630752 526.786129 
L 263.413806 500.726711 
C 267.449463 474.521149 275.017578 448.982876 285.911365 424.80968 
C 296.805151 400.636484 310.924479 378.050552 327.883563 357.669005 
z
" clip-path="url(#p7ccaceee06)" style="fill: #c7c8ca"/>
   </g>
   <g id="patch_5">
    <path d="M 432.126807 530.420039 
C 430.77356 541.384547 430.912286 552.482039 432.539194 563.409294 
C 434.166103 574.336549 437.26624 584.99313 441.7549 595.087864 
L 262.96274 674.588448 
C 251.292224 648.342138 243.231867 620.635028 239.001905 592.224165 
C 234.771943 563.813302 234.411256 534.959823 237.929698 506.4521 
z
" clip-path="url(#p7ccaceee06)" style="fill: #c7c8ca"/>
   </g>
   <g id="patch_6">
    <path d="M 443.295594 598.417357 
C 448.085031 608.372909 454.201492 617.633712 461.477854 625.946731 
C 468.754217 634.25975 477.123601 641.548576 486.357328 647.614054 
L 378.929052 811.156539 
C 354.921362 795.386297 333.160964 776.43535 314.242421 754.821501 
C 295.323879 733.207652 279.421081 709.129564 266.968545 683.245128 
z
" clip-path="url(#p7ccaceee06)" style="fill: #c7c8ca"/>
   </g>
   <g id="patch_7">
    <path d="M 489.453501 649.582039 
C 498.86501 655.367817 509.017273 659.851692 519.632896 662.91115 
C 530.248518 665.970608 541.229929 667.577528 552.277079 667.688003 
L 550.238878 871.501341 
C 520.779811 871.206741 491.496049 866.921622 463.187721 858.763067 
C 434.879393 850.604513 407.806694 838.647513 382.709337 823.21877 
z
" clip-path="url(#p7ccaceee06)" style="fill: #c7c8ca"/>
   </g>
   <g id="patch_8">
    <path d="M 555.945719 667.66966 
C 566.991212 667.44872 577.956005 665.732069 588.540503 662.566609 
C 599.125001 659.40115 609.231918 654.815978 618.585099 648.936375 
L 731.399272 828.399426 
C 705.833909 844.47034 678.208337 857.003143 649.277375 865.655399 
C 620.346414 874.307655 590.375981 878.999836 560.184966 879.603736 
z
" clip-path="url(#p7ccaceee06)" style="fill: #c7c8ca"/>
   </g>
   <g id="patch_9">
    <path d="M 621.661439 646.937527 
C 630.83405 640.780017 639.130129 633.407863 646.322998 625.022498 
C 653.515868 616.637132 659.539417 607.315629 664.229061 597.31268 
L 878.305244 697.677195 
C 864.548956 727.019177 846.879881 754.362255 825.780796 778.959327 
C 804.68171 803.556399 780.346547 825.181383 753.44022 843.243414 
z
" clip-path="url(#p7ccaceee06)" style="fill: #c7c8ca"/>
   </g>
   <g id="patch_10">
    <path d="M 665.736383 593.967948 
C 670.123873 583.828832 673.117291 573.141783 674.634848 562.198806 
C 676.152404 551.255828 676.18015 540.157504 674.717327 529.207076 
L 925.233137 495.741699 
C 929.719126 529.323013 929.634039 563.357874 924.9802 596.916338 
C 920.32636 630.474802 911.146544 663.248419 897.691574 694.341706 
z
" clip-path="url(#p7ccaceee06)" style="fill: #d81920; stroke: #d81920; stroke-linejoin: miter"/>
   </g>
   <g id="patch_11">
    <path d="M 674.177069 525.578388 
C 672.386441 514.676765 669.126809 504.067883 664.487239 494.041612 
C 659.847668 484.01534 653.870802 474.663835 646.719949 466.24261 
L 746.154561 381.808062 
C 760.932992 399.211927 773.285181 418.53837 782.873627 439.259331 
C 792.462073 459.980292 799.198644 481.905314 802.899275 504.435335 
z
" clip-path="url(#p7ccaceee06)" style="fill: #20706d; stroke: #20706d; stroke-linejoin: miter"/>
   </g>
   <g id="patch_12">
    <path d="M 644.303638 463.48205 
C 636.903403 455.279107 628.425632 448.116638 619.101966 442.190343 
C 609.778299 436.264048 599.694434 431.628399 589.125896 428.410057 
L 631.87697 288.022125 
C 655.127755 295.102478 677.312258 305.300906 697.824324 318.338754 
C 718.336391 331.376603 736.987487 347.134036 753.268003 365.180509 
z
" clip-path="url(#p7ccaceee06)" style="fill: #c7c8ca"/>
   </g>
   <g id="patch_13">
    <path d="M 585.600693 427.394082 
C 574.940374 424.494197 563.936096 423.052173 552.888532 423.107411 
C 541.840967 423.162649 530.85166 424.714642 520.220872 427.720984 
L 475.848702 270.815629 
C 500.653873 263.800831 526.295591 260.179515 552.073241 260.050626 
C 577.850892 259.921736 603.52754 263.286459 628.401618 270.052858 
z
" clip-path="url(#p7ccaceee06)" style="fill: #c7c8ca"/>
   </g>
   <g id="matplotlib.axis_1"/>
   <g id="matplotlib.axis_2"/>
   <g id="line2d_1">
    <path d="M 661.608 362.448 
L 661.608 320.868 
" clip-path="url(#p7ccaceee06)" style="fill: none; stroke: #000000; stroke-width: 1.5; stroke-linecap: square"/>
   </g>
   <g id="line2d_2">
    <path d="M 661.608 320.868 
L 744.768 320.868 
" clip-path="url(#p7ccaceee06)" style="fill: none; stroke: #000000; stroke-width: 1.5; stroke-linecap: square"/>
   </g>
   <g id="line2d_3">
    <path d="M 719.82 445.608 
L 802.98 445.608 
" clip-path="url(#p7ccaceee06)" style="fill: none; stroke: #000000; stroke-width: 1.5; stroke-linecap: square"/>
   </g>
   <g id="line2d_4">
    <path d="M 844.56 562.032 
L 944.352 562.032 
" clip-path="url(#p7ccaceee06)" style="fill: none; stroke: #000000; stroke-width: 1.5; stroke-linecap: square"/>
   </g>
   <g id="line2d_5">
    <path d="M 944.352 562.032 
L 944.352 586.98 
" clip-path="url(#p7ccaceee06)" style="fill: none; stroke: #000000; stroke-width: 1.5; stroke-linecap: square"/>
   </g>
   <g id="line2d_6">
    <path d="M 719.82 728.352 
L 719.82 778.248 
" clip-path="url(#p7ccaceee06)" style="fill: none; stroke: #000000; stroke-width: 1.5; stroke-linecap: square"/>
   </g>
   <g id="line2d_7">
    <path d="M 719.82 778.248 
L 844.56 778.248 
" clip-path="url(#p7ccaceee06)" style="fill: none; stroke: #000000; stroke-width: 1.5; stroke-linecap: square"/>
   </g>
   <g id="line2d_8">
    <path d="M 470.34 769.932 
L 470.34 853.092 
" clip-path="url(#p7ccaceee06)" style="fill: none; stroke: #000000; stroke-width: 1.5; stroke-linecap: square"/>
   </g>
   <g id="line2d_9">
    <path d="M 470.34 853.092 
L 304.02 853.092 
" clip-path="url(#p7ccaceee06)" style="fill: none; stroke: #000000; stroke-width: 1.5; stroke-linecap: square"/>
   </g>
   <g id="line2d_10">
    <path d="M 362.232 711.72 
L 362.232 753.3 
" clip-path="url(#p7ccaceee06)" style="fill: none; stroke: #000000; stroke-width: 1.5; stroke-linecap: square"/>
   </g>
   <g id="line2d_11">
    <path d="M 362.232 753.3 
L 212.544 753.3 
" clip-path="url(#p7ccaceee06)" style="fill: none; stroke: #000000; stroke-width: 1.5; stroke-linecap: square"/>
   </g>
   <g id="line2d_12">
    <path d="M 295.704 578.664 
L 212.544 578.664 
" clip-path="url(#p7ccaceee06)" style="fill: none; stroke: #000000; stroke-width: 1.5; stroke-linecap: square"/>
   </g>
   <g id="line2d_13">
    <path d="M 345.6 428.976 
L 245.808 428.976 
" clip-path="url(#p7ccaceee06)" style="fill: none; stroke: #000000; stroke-width: 1.5; stroke-linecap: square"/>
   </g>
   <g id="line2d_14">
    <path d="M 337.284 295.92 
L 445.392 295.92 
" clip-path="url(#p7ccaceee06)" style="fill: none; stroke: #000000; stroke-width: 1.5; stroke-linecap: square"/>
   </g>
   <g id="line2d_15">
    <path d="M 445.392 295.92 
L 445.392 337.5 
" clip-path="url(#p7ccaceee06)" style="fill: none; stroke: #000000; stroke-width: 1.5; stroke-linecap: square"/>
   </g>
   <g id="line2d_16">
    <path d="M 553.5 246.024 
L 636.66 246.024 
" clip-path="url(#p7ccaceee06)" style="fill: none; stroke: #000000; stroke-width: 1.5; stroke-linecap: square"/>
   </g>
   <g id="line2d_17">
    <path d="M 553.5 312.552 
L 553.5 246.024 
" clip-path="url(#p7ccaceee06)" style="fill: none; stroke: #000000; stroke-width: 1.5; stroke-linecap: square"/>
   </g>
   <g id="text_1">
    <!-- 21% -->
    <g transform="translate(417.465023 373.959095) scale(0.24 -0.24)">
     <defs>
      <path id="DejaVuSans-Bold-32" d="M 1844 884 
L 3897 884 
L 3897 0 
L 506 0 
L 506 884 
L 2209 2388 
Q 2438 2594 2547 2791 
Q 2656 2988 2656 3200 
Q 2656 3528 2436 3728 
Q 2216 3928 1850 3928 
Q 1569 3928 1234 3808 
Q 900 3688 519 3450 
L 519 4475 
Q 925 4609 1322 4679 
Q 1719 4750 2100 4750 
Q 2938 4750 3402 4381 
Q 3866 4013 3866 3353 
Q 3866 2972 3669 2642 
Q 3472 2313 2841 1759 
L 1844 884 
z
" transform="scale(0.015625)"/>
      <path id="DejaVuSans-Bold-31" d="M 750 831 
L 1813 831 
L 1813 3847 
L 722 3622 
L 722 4441 
L 1806 4666 
L 2950 4666 
L 2950 831 
L 4013 831 
L 4013 0 
L 750 0 
L 750 831 
z
" transform="scale(0.015625)"/>
      <path id="DejaVuSans-Bold-25" d="M 4959 1925 
Q 4738 1925 4616 1733 
Q 4494 1541 4494 1184 
Q 4494 825 4614 633 
Q 4734 441 4959 441 
Q 5184 441 5303 633 
Q 5422 825 5422 1184 
Q 5422 1541 5301 1733 
Q 5181 1925 4959 1925 
z
M 4959 2450 
Q 5541 2450 5875 2112 
Q 6209 1775 6209 1184 
Q 6209 594 5875 251 
Q 5541 -91 4959 -91 
Q 4378 -91 4042 251 
Q 3706 594 3706 1184 
Q 3706 1772 4042 2111 
Q 4378 2450 4959 2450 
z
M 2094 -91 
L 1403 -91 
L 4319 4750 
L 5013 4750 
L 2094 -91 
z
M 1453 4750 
Q 2034 4750 2367 4411 
Q 2700 4072 2700 3481 
Q 2700 2891 2367 2550 
Q 2034 2209 1453 2209 
Q 872 2209 539 2550 
Q 206 2891 206 3481 
Q 206 4072 539 4411 
Q 872 4750 1453 4750 
z
M 1453 4225 
Q 1228 4225 1106 4031 
Q 984 3838 984 3481 
Q 984 3122 1106 2926 
Q 1228 2731 1453 2731 
Q 1678 2731 1798 2926 
Q 1919 3122 1919 3481 
Q 1919 3838 1797 4031 
Q 1675 4225 1453 4225 
z
" transform="scale(0.015625)"/>
     </defs>
     <use xlink:href="#DejaVuSans-Bold-32"/>
     <use xlink:href="#DejaVuSans-Bold-31" x="69.580078"/>
     <use xlink:href="#DejaVuSans-Bold-25" x="139.160156"/>
    </g>
   </g>
   <g id="text_2">
    <!-- 21% -->
    <g transform="translate(338.232055 460.243199) scale(0.24 -0.24)">
     <use xlink:href="#DejaVuSans-Bold-32"/>
     <use xlink:href="#DejaVuSans-Bold-31" x="69.580078"/>
     <use xlink:href="#DejaVuSans-Bold-25" x="139.160156"/>
    </g>
   </g>
   <g id="text_3">
    <!-- 24% -->
    <g transform="translate(306.075683 577.057411) scale(0.24 -0.24)">
     <defs>
      <path id="DejaVuSans-Bold-34" d="M 2356 3675 
L 1038 1722 
L 2356 1722 
L 2356 3675 
z
M 2156 4666 
L 3494 4666 
L 3494 1722 
L 4159 1722 
L 4159 850 
L 3494 850 
L 3494 0 
L 2356 0 
L 2356 850 
L 288 850 
L 288 1881 
L 2156 4666 
z
" transform="scale(0.015625)"/>
     </defs>
     <use xlink:href="#DejaVuSans-Bold-32"/>
     <use xlink:href="#DejaVuSans-Bold-34" x="69.580078"/>
     <use xlink:href="#DejaVuSans-Bold-25" x="139.160156"/>
    </g>
   </g>
   <g id="text_4">
    <!-- 24% -->
    <g transform="translate(354.32862 691.321998) scale(0.24 -0.24)">
     <use xlink:href="#DejaVuSans-Bold-32"/>
     <use xlink:href="#DejaVuSans-Bold-34" x="69.580078"/>
     <use xlink:href="#DejaVuSans-Bold-25" x="139.160156"/>
    </g>
   </g>
   <g id="text_5">
    <!-- 25% -->
    <g transform="translate(455.436947 765.236599) scale(0.24 -0.24)">
     <defs>
      <path id="DejaVuSans-Bold-35" d="M 678 4666 
L 3669 4666 
L 3669 3781 
L 1638 3781 
L 1638 3059 
Q 1775 3097 1914 3117 
Q 2053 3138 2203 3138 
Q 3056 3138 3531 2711 
Q 4006 2284 4006 1522 
Q 4006 766 3489 337 
Q 2972 -91 2053 -91 
Q 1656 -91 1267 -14 
Q 878 63 494 219 
L 494 1166 
Q 875 947 1217 837 
Q 1559 728 1863 728 
Q 2300 728 2551 942 
Q 2803 1156 2803 1522 
Q 2803 1891 2551 2103 
Q 2300 2316 1863 2316 
Q 1603 2316 1309 2248 
Q 1016 2181 678 2041 
L 678 4666 
z
" transform="scale(0.015625)"/>
     </defs>
     <use xlink:href="#DejaVuSans-Bold-32"/>
     <use xlink:href="#DejaVuSans-Bold-35" x="69.580078"/>
     <use xlink:href="#DejaVuSans-Bold-25" x="139.160156"/>
    </g>
   </g>
   <g id="text_6">
    <!-- 26% -->
    <g transform="translate(582.751929 759.383055) scale(0.24 -0.24)">
     <defs>
      <path id="DejaVuSans-Bold-36" d="M 2316 2303 
Q 2000 2303 1842 2098 
Q 1684 1894 1684 1484 
Q 1684 1075 1842 870 
Q 2000 666 2316 666 
Q 2634 666 2792 870 
Q 2950 1075 2950 1484 
Q 2950 1894 2792 2098 
Q 2634 2303 2316 2303 
z
M 3803 4544 
L 3803 3681 
Q 3506 3822 3243 3889 
Q 2981 3956 2731 3956 
Q 2194 3956 1894 3657 
Q 1594 3359 1544 2772 
Q 1750 2925 1990 3001 
Q 2231 3078 2516 3078 
Q 3231 3078 3670 2659 
Q 4109 2241 4109 1563 
Q 4109 813 3618 361 
Q 3128 -91 2303 -91 
Q 1394 -91 895 523 
Q 397 1138 397 2266 
Q 397 3422 980 4083 
Q 1563 4744 2578 4744 
Q 2900 4744 3203 4694 
Q 3506 4644 3803 4544 
z
" transform="scale(0.015625)"/>
     </defs>
     <use xlink:href="#DejaVuSans-Bold-32"/>
     <use xlink:href="#DejaVuSans-Bold-36" x="69.580078"/>
     <use xlink:href="#DejaVuSans-Bold-25" x="139.160156"/>
    </g>
    <!--  -->
    <g transform="translate(611.475054 786.257805) scale(0.24 -0.24)"/>
   </g>
   <g id="text_7">
    <!-- Increasing -->
    <g transform="translate(576.399105 794.379764) scale(0.18 -0.18)">
     <defs>
      <path id="DejaVuSans-49" d="M 628 4666 
L 1259 4666 
L 1259 0 
L 628 0 
L 628 4666 
z
" transform="scale(0.015625)"/>
      <path id="DejaVuSans-6e" d="M 3513 2113 
L 3513 0 
L 2938 0 
L 2938 2094 
Q 2938 2591 2744 2837 
Q 2550 3084 2163 3084 
Q 1697 3084 1428 2787 
Q 1159 2491 1159 1978 
L 1159 0 
L 581 0 
L 581 3500 
L 1159 3500 
L 1159 2956 
Q 1366 3272 1645 3428 
Q 1925 3584 2291 3584 
Q 2894 3584 3203 3211 
Q 3513 2838 3513 2113 
z
" transform="scale(0.015625)"/>
      <path id="DejaVuSans-63" d="M 3122 3366 
L 3122 2828 
Q 2878 2963 2633 3030 
Q 2388 3097 2138 3097 
Q 1578 3097 1268 2742 
Q 959 2388 959 1747 
Q 959 1106 1268 751 
Q 1578 397 2138 397 
Q 2388 397 2633 464 
Q 2878 531 3122 666 
L 3122 134 
Q 2881 22 2623 -34 
Q 2366 -91 2075 -91 
Q 1284 -91 818 406 
Q 353 903 353 1747 
Q 353 2603 823 3093 
Q 1294 3584 2113 3584 
Q 2378 3584 2631 3529 
Q 2884 3475 3122 3366 
z
" transform="scale(0.015625)"/>
      <path id="DejaVuSans-72" d="M 2631 2963 
Q 2534 3019 2420 3045 
Q 2306 3072 2169 3072 
Q 1681 3072 1420 2755 
Q 1159 2438 1159 1844 
L 1159 0 
L 581 0 
L 581 3500 
L 1159 3500 
L 1159 2956 
Q 1341 3275 1631 3429 
Q 1922 3584 2338 3584 
Q 2397 3584 2469 3576 
Q 2541 3569 2628 3553 
L 2631 2963 
z
" transform="scale(0.015625)"/>
      <path id="DejaVuSans-65" d="M 3597 1894 
L 3597 1613 
L 953 1613 
Q 991 1019 1311 708 
Q 1631 397 2203 397 
Q 2534 397 2845 478 
Q 3156 559 3463 722 
L 3463 178 
Q 3153 47 2828 -22 
Q 2503 -91 2169 -91 
Q 1331 -91 842 396 
Q 353 884 353 1716 
Q 353 2575 817 3079 
Q 1281 3584 2069 3584 
Q 2775 3584 3186 3129 
Q 3597 2675 3597 1894 
z
M 3022 2063 
Q 3016 2534 2758 2815 
Q 2500 3097 2075 3097 
Q 1594 3097 1305 2825 
Q 1016 2553 972 2059 
L 3022 2063 
z
" transform="scale(0.015625)"/>
      <path id="DejaVuSans-61" d="M 2194 1759 
Q 1497 1759 1228 1600 
Q 959 1441 959 1056 
Q 959 750 1161 570 
Q 1363 391 1709 391 
Q 2188 391 2477 730 
Q 2766 1069 2766 1631 
L 2766 1759 
L 2194 1759 
z
M 3341 1997 
L 3341 0 
L 2766 0 
L 2766 531 
Q 2569 213 2275 61 
Q 1981 -91 1556 -91 
Q 1019 -91 701 211 
Q 384 513 384 1019 
Q 384 1609 779 1909 
Q 1175 2209 1959 2209 
L 2766 2209 
L 2766 2266 
Q 2766 2663 2505 2880 
Q 2244 3097 1772 3097 
Q 1472 3097 1187 3025 
Q 903 2953 641 2809 
L 641 3341 
Q 956 3463 1253 3523 
Q 1550 3584 1831 3584 
Q 2591 3584 2966 3190 
Q 3341 2797 3341 1997 
z
" transform="scale(0.015625)"/>
      <path id="DejaVuSans-73" d="M 2834 3397 
L 2834 2853 
Q 2591 2978 2328 3040 
Q 2066 3103 1784 3103 
Q 1356 3103 1142 2972 
Q 928 2841 928 2578 
Q 928 2378 1081 2264 
Q 1234 2150 1697 2047 
L 1894 2003 
Q 2506 1872 2764 1633 
Q 3022 1394 3022 966 
Q 3022 478 2636 193 
Q 2250 -91 1575 -91 
Q 1294 -91 989 -36 
Q 684 19 347 128 
L 347 722 
Q 666 556 975 473 
Q 1284 391 1588 391 
Q 1994 391 2212 530 
Q 2431 669 2431 922 
Q 2431 1156 2273 1281 
Q 2116 1406 1581 1522 
L 1381 1569 
Q 847 1681 609 1914 
Q 372 2147 372 2553 
Q 372 3047 722 3315 
Q 1072 3584 1716 3584 
Q 2034 3584 2315 3537 
Q 2597 3491 2834 3397 
z
" transform="scale(0.015625)"/>
      <path id="DejaVuSans-69" d="M 603 3500 
L 1178 3500 
L 1178 0 
L 603 0 
L 603 3500 
z
M 603 4863 
L 1178 4863 
L 1178 4134 
L 603 4134 
L 603 4863 
z
" transform="scale(0.015625)"/>
      <path id="DejaVuSans-67" d="M 2906 1791 
Q 2906 2416 2648 2759 
Q 2391 3103 1925 3103 
Q 1463 3103 1205 2759 
Q 947 2416 947 1791 
Q 947 1169 1205 825 
Q 1463 481 1925 481 
Q 2391 481 2648 825 
Q 2906 1169 2906 1791 
z
M 3481 434 
Q 3481 -459 3084 -895 
Q 2688 -1331 1869 -1331 
Q 1566 -1331 1297 -1286 
Q 1028 -1241 775 -1147 
L 775 -588 
Q 1028 -725 1275 -790 
Q 1522 -856 1778 -856 
Q 2344 -856 2625 -561 
Q 2906 -266 2906 331 
L 2906 616 
Q 2728 306 2450 153 
Q 2172 0 1784 0 
Q 1141 0 747 490 
Q 353 981 353 1791 
Q 353 2603 747 3093 
Q 1141 3584 1784 3584 
Q 2172 3584 2450 3431 
Q 2728 3278 2906 2969 
L 2906 3500 
L 3481 3500 
L 3481 434 
z
" transform="scale(0.015625)"/>
     </defs>
     <use xlink:href="#DejaVuSans-49"/>
     <use xlink:href="#DejaVuSans-6e" x="29.492188"/>
     <use xlink:href="#DejaVuSans-63" x="92.871094"/>
     <use xlink:href="#DejaVuSans-72" x="147.851562"/>
     <use xlink:href="#DejaVuSans-65" x="186.714844"/>
     <use xlink:href="#DejaVuSans-61" x="248.238281"/>
     <use xlink:href="#DejaVuSans-73" x="309.517578"/>
     <use xlink:href="#DejaVuSans-69" x="361.617188"/>
     <use xlink:href="#DejaVuSans-6e" x="389.400391"/>
     <use xlink:href="#DejaVuSans-67" x="452.779297"/>
    </g>
    <!-- employees -->
    <g transform="translate(573.746917 814.535827) scale(0.18 -0.18)">
     <defs>
      <path id="DejaVuSans-6d" d="M 3328 2828 
Q 3544 3216 3844 3400 
Q 4144 3584 4550 3584 
Q 5097 3584 5394 3201 
Q 5691 2819 5691 2113 
L 5691 0 
L 5113 0 
L 5113 2094 
Q 5113 2597 4934 2840 
Q 4756 3084 4391 3084 
Q 3944 3084 3684 2787 
Q 3425 2491 3425 1978 
L 3425 0 
L 2847 0 
L 2847 2094 
Q 2847 2600 2669 2842 
Q 2491 3084 2119 3084 
Q 1678 3084 1418 2786 
Q 1159 2488 1159 1978 
L 1159 0 
L 581 0 
L 581 3500 
L 1159 3500 
L 1159 2956 
Q 1356 3278 1631 3431 
Q 1906 3584 2284 3584 
Q 2666 3584 2933 3390 
Q 3200 3197 3328 2828 
z
" transform="scale(0.015625)"/>
      <path id="DejaVuSans-70" d="M 1159 525 
L 1159 -1331 
L 581 -1331 
L 581 3500 
L 1159 3500 
L 1159 2969 
Q 1341 3281 1617 3432 
Q 1894 3584 2278 3584 
Q 2916 3584 3314 3078 
Q 3713 2572 3713 1747 
Q 3713 922 3314 415 
Q 2916 -91 2278 -91 
Q 1894 -91 1617 61 
Q 1341 213 1159 525 
z
M 3116 1747 
Q 3116 2381 2855 2742 
Q 2594 3103 2138 3103 
Q 1681 3103 1420 2742 
Q 1159 2381 1159 1747 
Q 1159 1113 1420 752 
Q 1681 391 2138 391 
Q 2594 391 2855 752 
Q 3116 1113 3116 1747 
z
" transform="scale(0.015625)"/>
      <path id="DejaVuSans-6c" d="M 603 4863 
L 1178 4863 
L 1178 0 
L 603 0 
L 603 4863 
z
" transform="scale(0.015625)"/>
      <path id="DejaVuSans-6f" d="M 1959 3097 
Q 1497 3097 1228 2736 
Q 959 2375 959 1747 
Q 959 1119 1226 758 
Q 1494 397 1959 397 
Q 2419 397 2687 759 
Q 2956 1122 2956 1747 
Q 2956 2369 2687 2733 
Q 2419 3097 1959 3097 
z
M 1959 3584 
Q 2709 3584 3137 3096 
Q 3566 2609 3566 1747 
Q 3566 888 3137 398 
Q 2709 -91 1959 -91 
Q 1206 -91 779 398 
Q 353 888 353 1747 
Q 353 2609 779 3096 
Q 1206 3584 1959 3584 
z
" transform="scale(0.015625)"/>
      <path id="DejaVuSans-79" d="M 2059 -325 
Q 1816 -950 1584 -1140 
Q 1353 -1331 966 -1331 
L 506 -1331 
L 506 -850 
L 844 -850 
Q 1081 -850 1212 -737 
Q 1344 -625 1503 -206 
L 1606 56 
L 191 3500 
L 800 3500 
L 1894 763 
L 2988 3500 
L 3597 3500 
L 2059 -325 
z
" transform="scale(0.015625)"/>
     </defs>
     <use xlink:href="#DejaVuSans-65"/>
     <use xlink:href="#DejaVuSans-6d" x="61.523438"/>
     <use xlink:href="#DejaVuSans-70" x="158.935547"/>
     <use xlink:href="#DejaVuSans-6c" x="222.412109"/>
     <use xlink:href="#DejaVuSans-6f" x="250.195312"/>
     <use xlink:href="#DejaVuSans-79" x="311.376953"/>
     <use xlink:href="#DejaVuSans-65" x="370.556641"/>
     <use xlink:href="#DejaVuSans-65" x="432.080078"/>
     <use xlink:href="#DejaVuSans-73" x="493.603516"/>
    </g>
    <!-- well-being -->
    <g transform="translate(576.548167 834.691889) scale(0.18 -0.18)">
     <defs>
      <path id="DejaVuSans-77" d="M 269 3500 
L 844 3500 
L 1563 769 
L 2278 3500 
L 2956 3500 
L 3675 769 
L 4391 3500 
L 4966 3500 
L 4050 0 
L 3372 0 
L 2619 2869 
L 1863 0 
L 1184 0 
L 269 3500 
z
" transform="scale(0.015625)"/>
      <path id="DejaVuSans-2d" d="M 313 2009 
L 1997 2009 
L 1997 1497 
L 313 1497 
L 313 2009 
z
" transform="scale(0.015625)"/>
      <path id="DejaVuSans-62" d="M 3116 1747 
Q 3116 2381 2855 2742 
Q 2594 3103 2138 3103 
Q 1681 3103 1420 2742 
Q 1159 2381 1159 1747 
Q 1159 1113 1420 752 
Q 1681 391 2138 391 
Q 2594 391 2855 752 
Q 3116 1113 3116 1747 
z
M 1159 2969 
Q 1341 3281 1617 3432 
Q 1894 3584 2278 3584 
Q 2916 3584 3314 3078 
Q 3713 2572 3713 1747 
Q 3713 922 3314 415 
Q 2916 -91 2278 -91 
Q 1894 -91 1617 61 
Q 1341 213 1159 525 
L 1159 0 
L 581 0 
L 581 4863 
L 1159 4863 
L 1159 2969 
z
" transform="scale(0.015625)"/>
     </defs>
     <use xlink:href="#DejaVuSans-77"/>
     <use xlink:href="#DejaVuSans-65" x="81.787109"/>
     <use xlink:href="#DejaVuSans-6c" x="143.310547"/>
     <use xlink:href="#DejaVuSans-6c" x="171.09375"/>
     <use xlink:href="#DejaVuSans-2d" x="198.876953"/>
     <use xlink:href="#DejaVuSans-62" x="234.960938"/>
     <use xlink:href="#DejaVuSans-65" x="298.4375"/>
     <use xlink:href="#DejaVuSans-69" x="359.960938"/>
     <use xlink:href="#DejaVuSans-6e" x="387.744141"/>
     <use xlink:href="#DejaVuSans-67" x="451.123047"/>
    </g>
   </g>
   <g id="text_8">
    <!-- 29% -->
    <g transform="translate(701.928686 714.697466) scale(0.24 -0.24)">
     <defs>
      <path id="DejaVuSans-Bold-39" d="M 641 103 
L 641 966 
Q 928 831 1190 764 
Q 1453 697 1709 697 
Q 2247 697 2547 995 
Q 2847 1294 2900 1881 
Q 2688 1725 2447 1647 
Q 2206 1569 1925 1569 
Q 1209 1569 770 1986 
Q 331 2403 331 3084 
Q 331 3838 820 4291 
Q 1309 4744 2131 4744 
Q 3044 4744 3544 4128 
Q 4044 3513 4044 2388 
Q 4044 1231 3459 570 
Q 2875 -91 1856 -91 
Q 1528 -91 1228 -42 
Q 928 6 641 103 
z
M 2125 2350 
Q 2441 2350 2600 2554 
Q 2759 2759 2759 3169 
Q 2759 3575 2600 3781 
Q 2441 3988 2125 3988 
Q 1809 3988 1650 3781 
Q 1491 3575 1491 3169 
Q 1491 2759 1650 2554 
Q 1809 2350 2125 2350 
z
" transform="scale(0.015625)"/>
     </defs>
     <use xlink:href="#DejaVuSans-Bold-32"/>
     <use xlink:href="#DejaVuSans-Bold-39" x="69.580078"/>
     <use xlink:href="#DejaVuSans-Bold-25" x="139.160156"/>
    </g>
   </g>
   <g id="text_9">
    <!-- 31% -->
    <g style="fill: #ffffff" transform="translate(769.788352 567.615526) scale(0.24 -0.24)">
     <defs>
      <path id="DejaVuSans-Bold-33" d="M 2981 2516 
Q 3453 2394 3698 2092 
Q 3944 1791 3944 1325 
Q 3944 631 3412 270 
Q 2881 -91 1863 -91 
Q 1503 -91 1142 -33 
Q 781 25 428 141 
L 428 1069 
Q 766 900 1098 814 
Q 1431 728 1753 728 
Q 2231 728 2486 893 
Q 2741 1059 2741 1369 
Q 2741 1688 2480 1852 
Q 2219 2016 1709 2016 
L 1228 2016 
L 1228 2791 
L 1734 2791 
Q 2188 2791 2409 2933 
Q 2631 3075 2631 3366 
Q 2631 3634 2415 3781 
Q 2200 3928 1806 3928 
Q 1516 3928 1219 3862 
Q 922 3797 628 3669 
L 628 4550 
Q 984 4650 1334 4700 
Q 1684 4750 2022 4750 
Q 2931 4750 3382 4451 
Q 3834 4153 3834 3553 
Q 3834 3144 3618 2883 
Q 3403 2622 2981 2516 
z
" transform="scale(0.015625)"/>
     </defs>
     <use xlink:href="#DejaVuSans-Bold-33"/>
     <use xlink:href="#DejaVuSans-Bold-31" x="69.580078"/>
     <use xlink:href="#DejaVuSans-Bold-25" x="139.160156"/>
    </g>
    <!-- (top factor -->
    <g style="fill: #ffffff" transform="translate(725.950852 594.490276) scale(0.24 -0.24)">
     <defs>
      <path id="DejaVuSans-Bold-28" d="M 2413 -844 
L 1484 -844 
Q 1006 -72 778 623 
Q 550 1319 550 2003 
Q 550 2688 779 3389 
Q 1009 4091 1484 4856 
L 2413 4856 
Q 2013 4116 1813 3408 
Q 1613 2700 1613 2009 
Q 1613 1319 1811 609 
Q 2009 -100 2413 -844 
z
" transform="scale(0.015625)"/>
      <path id="DejaVuSans-Bold-74" d="M 1759 4494 
L 1759 3500 
L 2913 3500 
L 2913 2700 
L 1759 2700 
L 1759 1216 
Q 1759 972 1856 886 
Q 1953 800 2241 800 
L 2816 800 
L 2816 0 
L 1856 0 
Q 1194 0 917 276 
Q 641 553 641 1216 
L 641 2700 
L 84 2700 
L 84 3500 
L 641 3500 
L 641 4494 
L 1759 4494 
z
" transform="scale(0.015625)"/>
      <path id="DejaVuSans-Bold-6f" d="M 2203 2784 
Q 1831 2784 1636 2517 
Q 1441 2250 1441 1747 
Q 1441 1244 1636 976 
Q 1831 709 2203 709 
Q 2569 709 2762 976 
Q 2956 1244 2956 1747 
Q 2956 2250 2762 2517 
Q 2569 2784 2203 2784 
z
M 2203 3584 
Q 3106 3584 3614 3096 
Q 4122 2609 4122 1747 
Q 4122 884 3614 396 
Q 3106 -91 2203 -91 
Q 1297 -91 786 396 
Q 275 884 275 1747 
Q 275 2609 786 3096 
Q 1297 3584 2203 3584 
z
" transform="scale(0.015625)"/>
      <path id="DejaVuSans-Bold-70" d="M 1656 506 
L 1656 -1331 
L 538 -1331 
L 538 3500 
L 1656 3500 
L 1656 2988 
Q 1888 3294 2169 3439 
Q 2450 3584 2816 3584 
Q 3463 3584 3878 3070 
Q 4294 2556 4294 1747 
Q 4294 938 3878 423 
Q 3463 -91 2816 -91 
Q 2450 -91 2169 54 
Q 1888 200 1656 506 
z
M 2400 2772 
Q 2041 2772 1848 2508 
Q 1656 2244 1656 1747 
Q 1656 1250 1848 986 
Q 2041 722 2400 722 
Q 2759 722 2948 984 
Q 3138 1247 3138 1747 
Q 3138 2247 2948 2509 
Q 2759 2772 2400 2772 
z
" transform="scale(0.015625)"/>
      <path id="DejaVuSans-Bold-20" transform="scale(0.015625)"/>
      <path id="DejaVuSans-Bold-66" d="M 2841 4863 
L 2841 4128 
L 2222 4128 
Q 1984 4128 1890 4042 
Q 1797 3956 1797 3744 
L 1797 3500 
L 2753 3500 
L 2753 2700 
L 1797 2700 
L 1797 0 
L 678 0 
L 678 2700 
L 122 2700 
L 122 3500 
L 678 3500 
L 678 3744 
Q 678 4316 997 4589 
Q 1316 4863 1984 4863 
L 2841 4863 
z
" transform="scale(0.015625)"/>
      <path id="DejaVuSans-Bold-61" d="M 2106 1575 
Q 1756 1575 1579 1456 
Q 1403 1338 1403 1106 
Q 1403 894 1545 773 
Q 1688 653 1941 653 
Q 2256 653 2472 879 
Q 2688 1106 2688 1447 
L 2688 1575 
L 2106 1575 
z
M 3816 1997 
L 3816 0 
L 2688 0 
L 2688 519 
Q 2463 200 2181 54 
Q 1900 -91 1497 -91 
Q 953 -91 614 226 
Q 275 544 275 1050 
Q 275 1666 698 1953 
Q 1122 2241 2028 2241 
L 2688 2241 
L 2688 2328 
Q 2688 2594 2478 2717 
Q 2269 2841 1825 2841 
Q 1466 2841 1156 2769 
Q 847 2697 581 2553 
L 581 3406 
Q 941 3494 1303 3539 
Q 1666 3584 2028 3584 
Q 2975 3584 3395 3211 
Q 3816 2838 3816 1997 
z
" transform="scale(0.015625)"/>
      <path id="DejaVuSans-Bold-63" d="M 3366 3391 
L 3366 2478 
Q 3138 2634 2908 2709 
Q 2678 2784 2431 2784 
Q 1963 2784 1702 2511 
Q 1441 2238 1441 1747 
Q 1441 1256 1702 982 
Q 1963 709 2431 709 
Q 2694 709 2930 787 
Q 3166 866 3366 1019 
L 3366 103 
Q 3103 6 2833 -42 
Q 2563 -91 2291 -91 
Q 1344 -91 809 395 
Q 275 881 275 1747 
Q 275 2613 809 3098 
Q 1344 3584 2291 3584 
Q 2566 3584 2833 3536 
Q 3100 3488 3366 3391 
z
" transform="scale(0.015625)"/>
      <path id="DejaVuSans-Bold-72" d="M 3138 2547 
Q 2991 2616 2845 2648 
Q 2700 2681 2553 2681 
Q 2122 2681 1889 2404 
Q 1656 2128 1656 1613 
L 1656 0 
L 538 0 
L 538 3500 
L 1656 3500 
L 1656 2925 
Q 1872 3269 2151 3426 
Q 2431 3584 2822 3584 
Q 2878 3584 2943 3579 
Q 3009 3575 3134 3559 
L 3138 2547 
z
" transform="scale(0.015625)"/>
     </defs>
     <use xlink:href="#DejaVuSans-Bold-28"/>
     <use xlink:href="#DejaVuSans-Bold-74" x="45.703125"/>
     <use xlink:href="#DejaVuSans-Bold-6f" x="93.505859"/>
     <use xlink:href="#DejaVuSans-Bold-70" x="162.207031"/>
     <use xlink:href="#DejaVuSans-Bold-20" x="233.789062"/>
     <use xlink:href="#DejaVuSans-Bold-66" x="268.603516"/>
     <use xlink:href="#DejaVuSans-Bold-61" x="312.109375"/>
     <use xlink:href="#DejaVuSans-Bold-63" x="379.589844"/>
     <use xlink:href="#DejaVuSans-Bold-74" x="438.867188"/>
     <use xlink:href="#DejaVuSans-Bold-6f" x="486.669922"/>
     <use xlink:href="#DejaVuSans-Bold-72" x="555.371094"/>
    </g>
    <!-- selected) -->
    <g style="fill: #ffffff" transform="translate(735.914602 621.365026) scale(0.24 -0.24)">
     <defs>
      <path id="DejaVuSans-Bold-73" d="M 3272 3391 
L 3272 2541 
Q 2913 2691 2578 2766 
Q 2244 2841 1947 2841 
Q 1628 2841 1473 2761 
Q 1319 2681 1319 2516 
Q 1319 2381 1436 2309 
Q 1553 2238 1856 2203 
L 2053 2175 
Q 2913 2066 3209 1816 
Q 3506 1566 3506 1031 
Q 3506 472 3093 190 
Q 2681 -91 1863 -91 
Q 1516 -91 1145 -36 
Q 775 19 384 128 
L 384 978 
Q 719 816 1070 734 
Q 1422 653 1784 653 
Q 2113 653 2278 743 
Q 2444 834 2444 1013 
Q 2444 1163 2330 1236 
Q 2216 1309 1875 1350 
L 1678 1375 
Q 931 1469 631 1722 
Q 331 1975 331 2491 
Q 331 3047 712 3315 
Q 1094 3584 1881 3584 
Q 2191 3584 2531 3537 
Q 2872 3491 3272 3391 
z
" transform="scale(0.015625)"/>
      <path id="DejaVuSans-Bold-65" d="M 4031 1759 
L 4031 1441 
L 1416 1441 
Q 1456 1047 1700 850 
Q 1944 653 2381 653 
Q 2734 653 3104 758 
Q 3475 863 3866 1075 
L 3866 213 
Q 3469 63 3072 -14 
Q 2675 -91 2278 -91 
Q 1328 -91 801 392 
Q 275 875 275 1747 
Q 275 2603 792 3093 
Q 1309 3584 2216 3584 
Q 3041 3584 3536 3087 
Q 4031 2591 4031 1759 
z
M 2881 2131 
Q 2881 2450 2695 2645 
Q 2509 2841 2209 2841 
Q 1884 2841 1681 2658 
Q 1478 2475 1428 2131 
L 2881 2131 
z
" transform="scale(0.015625)"/>
      <path id="DejaVuSans-Bold-6c" d="M 538 4863 
L 1656 4863 
L 1656 0 
L 538 0 
L 538 4863 
z
" transform="scale(0.015625)"/>
      <path id="DejaVuSans-Bold-64" d="M 2919 2988 
L 2919 4863 
L 4044 4863 
L 4044 0 
L 2919 0 
L 2919 506 
Q 2688 197 2409 53 
Q 2131 -91 1766 -91 
Q 1119 -91 703 423 
Q 288 938 288 1747 
Q 288 2556 703 3070 
Q 1119 3584 1766 3584 
Q 2128 3584 2408 3439 
Q 2688 3294 2919 2988 
z
M 2181 722 
Q 2541 722 2730 984 
Q 2919 1247 2919 1747 
Q 2919 2247 2730 2509 
Q 2541 2772 2181 2772 
Q 1825 2772 1636 2509 
Q 1447 2247 1447 1747 
Q 1447 1247 1636 984 
Q 1825 722 2181 722 
z
" transform="scale(0.015625)"/>
      <path id="DejaVuSans-Bold-29" d="M 513 -844 
Q 913 -100 1113 609 
Q 1313 1319 1313 2009 
Q 1313 2700 1113 3408 
Q 913 4116 513 4856 
L 1441 4856 
Q 1916 4091 2145 3389 
Q 2375 2688 2375 2003 
Q 2375 1319 2147 623 
Q 1919 -72 1441 -844 
L 513 -844 
z
" transform="scale(0.015625)"/>
     </defs>
     <use xlink:href="#DejaVuSans-Bold-73"/>
     <use xlink:href="#DejaVuSans-Bold-65" x="59.521484"/>
     <use xlink:href="#DejaVuSans-Bold-6c" x="127.34375"/>
     <use xlink:href="#DejaVuSans-Bold-65" x="161.621094"/>
     <use xlink:href="#DejaVuSans-Bold-63" x="229.443359"/>
     <use xlink:href="#DejaVuSans-Bold-74" x="288.720703"/>
     <use xlink:href="#DejaVuSans-Bold-65" x="336.523438"/>
     <use xlink:href="#DejaVuSans-Bold-64" x="404.345703"/>
     <use xlink:href="#DejaVuSans-Bold-29" x="475.927734"/>
    </g>
   </g>
   <g id="text_10">
    <!-- 16% -->
    <g style="fill: #ffffff" transform="translate(697.523151 479.073258) scale(0.24 -0.24)">
     <use xlink:href="#DejaVuSans-Bold-31"/>
     <use xlink:href="#DejaVuSans-Bold-36" x="69.580078"/>
     <use xlink:href="#DejaVuSans-Bold-25" x="139.160156"/>
    </g>
   </g>
   <g id="text_11">
    <!-- 18% -->
    <g transform="translate(635.264608 390.5312) scale(0.24 -0.24)">
     <defs>
      <path id="DejaVuSans-Bold-38" d="M 2228 2088 
Q 1891 2088 1709 1903 
Q 1528 1719 1528 1375 
Q 1528 1031 1709 848 
Q 1891 666 2228 666 
Q 2563 666 2741 848 
Q 2919 1031 2919 1375 
Q 2919 1722 2741 1905 
Q 2563 2088 2228 2088 
z
M 1350 2484 
Q 925 2613 709 2878 
Q 494 3144 494 3541 
Q 494 4131 934 4440 
Q 1375 4750 2228 4750 
Q 3075 4750 3515 4442 
Q 3956 4134 3956 3541 
Q 3956 3144 3739 2878 
Q 3522 2613 3097 2484 
Q 3572 2353 3814 2058 
Q 4056 1763 4056 1313 
Q 4056 619 3595 264 
Q 3134 -91 2228 -91 
Q 1319 -91 855 264 
Q 391 619 391 1313 
Q 391 1763 633 2058 
Q 875 2353 1350 2484 
z
M 1631 3419 
Q 1631 3141 1786 2991 
Q 1941 2841 2228 2841 
Q 2509 2841 2662 2991 
Q 2816 3141 2816 3419 
Q 2816 3697 2662 3845 
Q 2509 3994 2228 3994 
Q 1941 3994 1786 3844 
Q 1631 3694 1631 3419 
z
" transform="scale(0.015625)"/>
     </defs>
     <use xlink:href="#DejaVuSans-Bold-31"/>
     <use xlink:href="#DejaVuSans-Bold-38" x="69.580078"/>
     <use xlink:href="#DejaVuSans-Bold-25" x="139.160156"/>
    </g>
   </g>
   <g id="text_12">
    <!-- 20% -->
    <g transform="translate(530.651258 348.283641) scale(0.24 -0.24)">
     <defs>
      <path id="DejaVuSans-Bold-30" d="M 2944 2338 
Q 2944 3213 2780 3570 
Q 2616 3928 2228 3928 
Q 1841 3928 1675 3570 
Q 1509 3213 1509 2338 
Q 1509 1453 1675 1090 
Q 1841 728 2228 728 
Q 2613 728 2778 1090 
Q 2944 1453 2944 2338 
z
M 4147 2328 
Q 4147 1169 3647 539 
Q 3147 -91 2228 -91 
Q 1306 -91 806 539 
Q 306 1169 306 2328 
Q 306 3491 806 4120 
Q 1306 4750 2228 4750 
Q 3147 4750 3647 4120 
Q 4147 3491 4147 2328 
z
" transform="scale(0.015625)"/>
     </defs>
     <use xlink:href="#DejaVuSans-Bold-32"/>
     <use xlink:href="#DejaVuSans-Bold-30" x="69.580078"/>
     <use xlink:href="#DejaVuSans-Bold-25" x="139.160156"/>
    </g>
   </g>
   <g id="text_13">
    <!-- Increasing inclusivity -->
    <g transform="translate(761.4 329.184) scale(0.18 -0.18)">
     <defs>
      <path id="DejaVuSans-20" transform="scale(0.015625)"/>
      <path id="DejaVuSans-75" d="M 544 1381 
L 544 3500 
L 1119 3500 
L 1119 1403 
Q 1119 906 1312 657 
Q 1506 409 1894 409 
Q 2359 409 2629 706 
Q 2900 1003 2900 1516 
L 2900 3500 
L 3475 3500 
L 3475 0 
L 2900 0 
L 2900 538 
Q 2691 219 2414 64 
Q 2138 -91 1772 -91 
Q 1169 -91 856 284 
Q 544 659 544 1381 
z
M 1991 3584 
L 1991 3584 
z
" transform="scale(0.015625)"/>
      <path id="DejaVuSans-76" d="M 191 3500 
L 800 3500 
L 1894 563 
L 2988 3500 
L 3597 3500 
L 2284 0 
L 1503 0 
L 191 3500 
z
" transform="scale(0.015625)"/>
      <path id="DejaVuSans-74" d="M 1172 4494 
L 1172 3500 
L 2356 3500 
L 2356 3053 
L 1172 3053 
L 1172 1153 
Q 1172 725 1289 603 
Q 1406 481 1766 481 
L 2356 481 
L 2356 0 
L 1766 0 
Q 1100 0 847 248 
Q 594 497 594 1153 
L 594 3053 
L 172 3053 
L 172 3500 
L 594 3500 
L 594 4494 
L 1172 4494 
z
" transform="scale(0.015625)"/>
     </defs>
     <use xlink:href="#DejaVuSans-49"/>
     <use xlink:href="#DejaVuSans-6e" x="29.492188"/>
     <use xlink:href="#DejaVuSans-63" x="92.871094"/>
     <use xlink:href="#DejaVuSans-72" x="147.851562"/>
     <use xlink:href="#DejaVuSans-65" x="186.714844"/>
     <use xlink:href="#DejaVuSans-61" x="248.238281"/>
     <use xlink:href="#DejaVuSans-73" x="309.517578"/>
     <use xlink:href="#DejaVuSans-69" x="361.617188"/>
     <use xlink:href="#DejaVuSans-6e" x="389.400391"/>
     <use xlink:href="#DejaVuSans-67" x="452.779297"/>
     <use xlink:href="#DejaVuSans-20" x="516.255859"/>
     <use xlink:href="#DejaVuSans-69" x="548.042969"/>
     <use xlink:href="#DejaVuSans-6e" x="575.826172"/>
     <use xlink:href="#DejaVuSans-63" x="639.205078"/>
     <use xlink:href="#DejaVuSans-6c" x="694.185547"/>
     <use xlink:href="#DejaVuSans-75" x="721.96875"/>
     <use xlink:href="#DejaVuSans-73" x="785.347656"/>
     <use xlink:href="#DejaVuSans-69" x="837.447266"/>
     <use xlink:href="#DejaVuSans-76" x="865.230469"/>
     <use xlink:href="#DejaVuSans-69" x="924.410156"/>
     <use xlink:href="#DejaVuSans-74" x="952.193359"/>
     <use xlink:href="#DejaVuSans-79" x="991.402344"/>
    </g>
   </g>
   <g id="text_14">
    <!-- Reducing headcount -->
    <g transform="translate(802.98 437.292) scale(0.18 -0.18)">
     <defs>
      <path id="DejaVuSans-Bold-52" d="M 2297 2597 
Q 2675 2597 2839 2737 
Q 3003 2878 3003 3200 
Q 3003 3519 2839 3656 
Q 2675 3794 2297 3794 
L 1791 3794 
L 1791 2597 
L 2297 2597 
z
M 1791 1766 
L 1791 0 
L 588 0 
L 588 4666 
L 2425 4666 
Q 3347 4666 3776 4356 
Q 4206 4047 4206 3378 
Q 4206 2916 3982 2619 
Q 3759 2322 3309 2181 
Q 3556 2125 3751 1926 
Q 3947 1728 4147 1325 
L 4800 0 
L 3519 0 
L 2950 1159 
Q 2778 1509 2601 1637 
Q 2425 1766 2131 1766 
L 1791 1766 
z
" transform="scale(0.015625)"/>
      <path id="DejaVuSans-Bold-75" d="M 500 1363 
L 500 3500 
L 1625 3500 
L 1625 3150 
Q 1625 2866 1622 2436 
Q 1619 2006 1619 1863 
Q 1619 1441 1641 1255 
Q 1663 1069 1716 984 
Q 1784 875 1895 815 
Q 2006 756 2150 756 
Q 2500 756 2700 1025 
Q 2900 1294 2900 1772 
L 2900 3500 
L 4019 3500 
L 4019 0 
L 2900 0 
L 2900 506 
Q 2647 200 2364 54 
Q 2081 -91 1741 -91 
Q 1134 -91 817 281 
Q 500 653 500 1363 
z
" transform="scale(0.015625)"/>
      <path id="DejaVuSans-Bold-69" d="M 538 3500 
L 1656 3500 
L 1656 0 
L 538 0 
L 538 3500 
z
M 538 4863 
L 1656 4863 
L 1656 3950 
L 538 3950 
L 538 4863 
z
" transform="scale(0.015625)"/>
      <path id="DejaVuSans-Bold-6e" d="M 4056 2131 
L 4056 0 
L 2931 0 
L 2931 347 
L 2931 1631 
Q 2931 2084 2911 2256 
Q 2891 2428 2841 2509 
Q 2775 2619 2662 2680 
Q 2550 2741 2406 2741 
Q 2056 2741 1856 2470 
Q 1656 2200 1656 1722 
L 1656 0 
L 538 0 
L 538 3500 
L 1656 3500 
L 1656 2988 
Q 1909 3294 2193 3439 
Q 2478 3584 2822 3584 
Q 3428 3584 3742 3212 
Q 4056 2841 4056 2131 
z
" transform="scale(0.015625)"/>
      <path id="DejaVuSans-Bold-67" d="M 2919 594 
Q 2688 288 2409 144 
Q 2131 0 1766 0 
Q 1125 0 706 504 
Q 288 1009 288 1791 
Q 288 2575 706 3076 
Q 1125 3578 1766 3578 
Q 2131 3578 2409 3434 
Q 2688 3291 2919 2981 
L 2919 3500 
L 4044 3500 
L 4044 353 
Q 4044 -491 3511 -936 
Q 2978 -1381 1966 -1381 
Q 1638 -1381 1331 -1331 
Q 1025 -1281 716 -1178 
L 716 -306 
Q 1009 -475 1290 -558 
Q 1572 -641 1856 -641 
Q 2406 -641 2662 -400 
Q 2919 -159 2919 353 
L 2919 594 
z
M 2181 2772 
Q 1834 2772 1640 2515 
Q 1447 2259 1447 1791 
Q 1447 1309 1634 1061 
Q 1822 813 2181 813 
Q 2531 813 2725 1069 
Q 2919 1325 2919 1791 
Q 2919 2259 2725 2515 
Q 2531 2772 2181 2772 
z
" transform="scale(0.015625)"/>
      <path id="DejaVuSans-Bold-68" d="M 4056 2131 
L 4056 0 
L 2931 0 
L 2931 347 
L 2931 1625 
Q 2931 2084 2911 2256 
Q 2891 2428 2841 2509 
Q 2775 2619 2662 2680 
Q 2550 2741 2406 2741 
Q 2056 2741 1856 2470 
Q 1656 2200 1656 1722 
L 1656 0 
L 538 0 
L 538 4863 
L 1656 4863 
L 1656 2988 
Q 1909 3294 2193 3439 
Q 2478 3584 2822 3584 
Q 3428 3584 3742 3212 
Q 4056 2841 4056 2131 
z
" transform="scale(0.015625)"/>
     </defs>
     <use xlink:href="#DejaVuSans-Bold-52"/>
     <use xlink:href="#DejaVuSans-Bold-65" x="77.001953"/>
     <use xlink:href="#DejaVuSans-Bold-64" x="144.824219"/>
     <use xlink:href="#DejaVuSans-Bold-75" x="216.40625"/>
     <use xlink:href="#DejaVuSans-Bold-63" x="287.597656"/>
     <use xlink:href="#DejaVuSans-Bold-69" x="346.875"/>
     <use xlink:href="#DejaVuSans-Bold-6e" x="381.152344"/>
     <use xlink:href="#DejaVuSans-Bold-67" x="452.34375"/>
     <use xlink:href="#DejaVuSans-Bold-20" x="523.925781"/>
     <use xlink:href="#DejaVuSans-Bold-68" x="558.740234"/>
     <use xlink:href="#DejaVuSans-Bold-65" x="629.931641"/>
     <use xlink:href="#DejaVuSans-Bold-61" x="697.753906"/>
     <use xlink:href="#DejaVuSans-Bold-64" x="765.234375"/>
     <use xlink:href="#DejaVuSans-Bold-63" x="836.816406"/>
     <use xlink:href="#DejaVuSans-Bold-6f" x="896.09375"/>
     <use xlink:href="#DejaVuSans-Bold-75" x="964.794922"/>
     <use xlink:href="#DejaVuSans-Bold-6e" x="1035.986328"/>
     <use xlink:href="#DejaVuSans-Bold-74" x="1107.177734"/>
    </g>
   </g>
   <g id="text_15">
    <!-- (11th factor selected) -->
    <g transform="translate(802.98 462.24) scale(0.18 -0.18)">
     <defs>
      <path id="DejaVuSans-28" d="M 1984 4856 
Q 1566 4138 1362 3434 
Q 1159 2731 1159 2009 
Q 1159 1288 1364 580 
Q 1569 -128 1984 -844 
L 1484 -844 
Q 1016 -109 783 600 
Q 550 1309 550 2009 
Q 550 2706 781 3412 
Q 1013 4119 1484 4856 
L 1984 4856 
z
" transform="scale(0.015625)"/>
      <path id="DejaVuSans-31" d="M 794 531 
L 1825 531 
L 1825 4091 
L 703 3866 
L 703 4441 
L 1819 4666 
L 2450 4666 
L 2450 531 
L 3481 531 
L 3481 0 
L 794 0 
L 794 531 
z
" transform="scale(0.015625)"/>
      <path id="DejaVuSans-68" d="M 3513 2113 
L 3513 0 
L 2938 0 
L 2938 2094 
Q 2938 2591 2744 2837 
Q 2550 3084 2163 3084 
Q 1697 3084 1428 2787 
Q 1159 2491 1159 1978 
L 1159 0 
L 581 0 
L 581 4863 
L 1159 4863 
L 1159 2956 
Q 1366 3272 1645 3428 
Q 1925 3584 2291 3584 
Q 2894 3584 3203 3211 
Q 3513 2838 3513 2113 
z
" transform="scale(0.015625)"/>
      <path id="DejaVuSans-66" d="M 2375 4863 
L 2375 4384 
L 1825 4384 
Q 1516 4384 1395 4259 
Q 1275 4134 1275 3809 
L 1275 3500 
L 2222 3500 
L 2222 3053 
L 1275 3053 
L 1275 0 
L 697 0 
L 697 3053 
L 147 3053 
L 147 3500 
L 697 3500 
L 697 3744 
Q 697 4328 969 4595 
Q 1241 4863 1831 4863 
L 2375 4863 
z
" transform="scale(0.015625)"/>
      <path id="DejaVuSans-64" d="M 2906 2969 
L 2906 4863 
L 3481 4863 
L 3481 0 
L 2906 0 
L 2906 525 
Q 2725 213 2448 61 
Q 2172 -91 1784 -91 
Q 1150 -91 751 415 
Q 353 922 353 1747 
Q 353 2572 751 3078 
Q 1150 3584 1784 3584 
Q 2172 3584 2448 3432 
Q 2725 3281 2906 2969 
z
M 947 1747 
Q 947 1113 1208 752 
Q 1469 391 1925 391 
Q 2381 391 2643 752 
Q 2906 1113 2906 1747 
Q 2906 2381 2643 2742 
Q 2381 3103 1925 3103 
Q 1469 3103 1208 2742 
Q 947 2381 947 1747 
z
" transform="scale(0.015625)"/>
      <path id="DejaVuSans-29" d="M 513 4856 
L 1013 4856 
Q 1481 4119 1714 3412 
Q 1947 2706 1947 2009 
Q 1947 1309 1714 600 
Q 1481 -109 1013 -844 
L 513 -844 
Q 928 -128 1133 580 
Q 1338 1288 1338 2009 
Q 1338 2731 1133 3434 
Q 928 4138 513 4856 
z
" transform="scale(0.015625)"/>
     </defs>
     <use xlink:href="#DejaVuSans-28"/>
     <use xlink:href="#DejaVuSans-31" x="39.013672"/>
     <use xlink:href="#DejaVuSans-31" x="102.636719"/>
     <use xlink:href="#DejaVuSans-74" x="166.259766"/>
     <use xlink:href="#DejaVuSans-68" x="205.46875"/>
     <use xlink:href="#DejaVuSans-20" x="268.847656"/>
     <use xlink:href="#DejaVuSans-66" x="300.634766"/>
     <use xlink:href="#DejaVuSans-61" x="335.839844"/>
     <use xlink:href="#DejaVuSans-63" x="397.119141"/>
     <use xlink:href="#DejaVuSans-74" x="452.099609"/>
     <use xlink:href="#DejaVuSans-6f" x="491.308594"/>
     <use xlink:href="#DejaVuSans-72" x="552.490234"/>
     <use xlink:href="#DejaVuSans-20" x="593.603516"/>
     <use xlink:href="#DejaVuSans-73" x="625.390625"/>
     <use xlink:href="#DejaVuSans-65" x="677.490234"/>
     <use xlink:href="#DejaVuSans-6c" x="739.013672"/>
     <use xlink:href="#DejaVuSans-65" x="766.796875"/>
     <use xlink:href="#DejaVuSans-63" x="828.320312"/>
     <use xlink:href="#DejaVuSans-74" x="883.300781"/>
     <use xlink:href="#DejaVuSans-65" x="922.509766"/>
     <use xlink:href="#DejaVuSans-64" x="984.033203"/>
     <use xlink:href="#DejaVuSans-29" x="1047.509766"/>
    </g>
   </g>
   <g id="text_16">
    <!-- Increasing employee -->
    <g transform="translate(927.72 608.263312) scale(0.18 -0.18)">
     <defs>
      <path id="DejaVuSans-Bold-49" d="M 588 4666 
L 1791 4666 
L 1791 0 
L 588 0 
L 588 4666 
z
" transform="scale(0.015625)"/>
      <path id="DejaVuSans-Bold-6d" d="M 3781 2919 
Q 3994 3244 4286 3414 
Q 4578 3584 4928 3584 
Q 5531 3584 5847 3212 
Q 6163 2841 6163 2131 
L 6163 0 
L 5038 0 
L 5038 1825 
Q 5041 1866 5042 1909 
Q 5044 1953 5044 2034 
Q 5044 2406 4934 2573 
Q 4825 2741 4581 2741 
Q 4263 2741 4089 2478 
Q 3916 2216 3909 1719 
L 3909 0 
L 2784 0 
L 2784 1825 
Q 2784 2406 2684 2573 
Q 2584 2741 2328 2741 
Q 2006 2741 1831 2477 
Q 1656 2213 1656 1722 
L 1656 0 
L 531 0 
L 531 3500 
L 1656 3500 
L 1656 2988 
Q 1863 3284 2130 3434 
Q 2397 3584 2719 3584 
Q 3081 3584 3359 3409 
Q 3638 3234 3781 2919 
z
" transform="scale(0.015625)"/>
      <path id="DejaVuSans-Bold-79" d="M 78 3500 
L 1197 3500 
L 2138 1125 
L 2938 3500 
L 4056 3500 
L 2584 -331 
Q 2363 -916 2067 -1148 
Q 1772 -1381 1288 -1381 
L 641 -1381 
L 641 -647 
L 991 -647 
Q 1275 -647 1404 -556 
Q 1534 -466 1606 -231 
L 1638 -134 
L 78 3500 
z
" transform="scale(0.015625)"/>
     </defs>
     <use xlink:href="#DejaVuSans-Bold-49"/>
     <use xlink:href="#DejaVuSans-Bold-6e" x="37.207031"/>
     <use xlink:href="#DejaVuSans-Bold-63" x="108.398438"/>
     <use xlink:href="#DejaVuSans-Bold-72" x="167.675781"/>
     <use xlink:href="#DejaVuSans-Bold-65" x="216.992188"/>
     <use xlink:href="#DejaVuSans-Bold-61" x="284.814453"/>
     <use xlink:href="#DejaVuSans-Bold-73" x="352.294922"/>
     <use xlink:href="#DejaVuSans-Bold-69" x="411.816406"/>
     <use xlink:href="#DejaVuSans-Bold-6e" x="446.09375"/>
     <use xlink:href="#DejaVuSans-Bold-67" x="517.285156"/>
     <use xlink:href="#DejaVuSans-Bold-20" x="588.867188"/>
     <use xlink:href="#DejaVuSans-Bold-65" x="623.681641"/>
     <use xlink:href="#DejaVuSans-Bold-6d" x="691.503906"/>
     <use xlink:href="#DejaVuSans-Bold-70" x="795.703125"/>
     <use xlink:href="#DejaVuSans-Bold-6c" x="867.285156"/>
     <use xlink:href="#DejaVuSans-Bold-6f" x="901.5625"/>
     <use xlink:href="#DejaVuSans-Bold-79" x="970.263672"/>
     <use xlink:href="#DejaVuSans-Bold-65" x="1035.449219"/>
     <use xlink:href="#DejaVuSans-Bold-65" x="1103.271484"/>
    </g>
    <!-- productivity -->
    <g transform="translate(927.72 628.56) scale(0.18 -0.18)">
     <defs>
      <path id="DejaVuSans-Bold-76" d="M 97 3500 
L 1216 3500 
L 2088 1081 
L 2956 3500 
L 4078 3500 
L 2700 0 
L 1472 0 
L 97 3500 
z
" transform="scale(0.015625)"/>
     </defs>
     <use xlink:href="#DejaVuSans-Bold-70"/>
     <use xlink:href="#DejaVuSans-Bold-72" x="71.582031"/>
     <use xlink:href="#DejaVuSans-Bold-6f" x="120.898438"/>
     <use xlink:href="#DejaVuSans-Bold-64" x="189.599609"/>
     <use xlink:href="#DejaVuSans-Bold-75" x="261.181641"/>
     <use xlink:href="#DejaVuSans-Bold-63" x="332.373047"/>
     <use xlink:href="#DejaVuSans-Bold-74" x="391.650391"/>
     <use xlink:href="#DejaVuSans-Bold-69" x="439.453125"/>
     <use xlink:href="#DejaVuSans-Bold-76" x="473.730469"/>
     <use xlink:href="#DejaVuSans-Bold-69" x="538.916016"/>
     <use xlink:href="#DejaVuSans-Bold-74" x="573.193359"/>
     <use xlink:href="#DejaVuSans-Bold-79" x="620.996094"/>
    </g>
   </g>
   <g id="text_17">
    <!-- Helping employees with necessary -->
    <g transform="translate(861.192 758.091938) scale(0.18 -0.18)">
     <defs>
      <path id="DejaVuSans-48" d="M 628 4666 
L 1259 4666 
L 1259 2753 
L 3553 2753 
L 3553 4666 
L 4184 4666 
L 4184 0 
L 3553 0 
L 3553 2222 
L 1259 2222 
L 1259 0 
L 628 0 
L 628 4666 
z
" transform="scale(0.015625)"/>
     </defs>
     <use xlink:href="#DejaVuSans-48"/>
     <use xlink:href="#DejaVuSans-65" x="75.195312"/>
     <use xlink:href="#DejaVuSans-6c" x="136.71875"/>
     <use xlink:href="#DejaVuSans-70" x="164.501953"/>
     <use xlink:href="#DejaVuSans-69" x="227.978516"/>
     <use xlink:href="#DejaVuSans-6e" x="255.761719"/>
     <use xlink:href="#DejaVuSans-67" x="319.140625"/>
     <use xlink:href="#DejaVuSans-20" x="382.617188"/>
     <use xlink:href="#DejaVuSans-65" x="414.404297"/>
     <use xlink:href="#DejaVuSans-6d" x="475.927734"/>
     <use xlink:href="#DejaVuSans-70" x="573.339844"/>
     <use xlink:href="#DejaVuSans-6c" x="636.816406"/>
     <use xlink:href="#DejaVuSans-6f" x="664.599609"/>
     <use xlink:href="#DejaVuSans-79" x="725.78125"/>
     <use xlink:href="#DejaVuSans-65" x="784.960938"/>
     <use xlink:href="#DejaVuSans-65" x="846.484375"/>
     <use xlink:href="#DejaVuSans-73" x="908.007812"/>
     <use xlink:href="#DejaVuSans-20" x="960.107422"/>
     <use xlink:href="#DejaVuSans-77" x="991.894531"/>
     <use xlink:href="#DejaVuSans-69" x="1073.681641"/>
     <use xlink:href="#DejaVuSans-74" x="1101.464844"/>
     <use xlink:href="#DejaVuSans-68" x="1140.673828"/>
     <use xlink:href="#DejaVuSans-20" x="1204.052734"/>
     <use xlink:href="#DejaVuSans-6e" x="1235.839844"/>
     <use xlink:href="#DejaVuSans-65" x="1299.21875"/>
     <use xlink:href="#DejaVuSans-63" x="1360.742188"/>
     <use xlink:href="#DejaVuSans-65" x="1415.722656"/>
     <use xlink:href="#DejaVuSans-73" x="1477.246094"/>
     <use xlink:href="#DejaVuSans-73" x="1529.345703"/>
     <use xlink:href="#DejaVuSans-61" x="1581.445312"/>
     <use xlink:href="#DejaVuSans-72" x="1642.724609"/>
     <use xlink:href="#DejaVuSans-79" x="1683.837891"/>
    </g>
    <!-- but repetitive/ mundane tasks -->
    <g transform="translate(861.192 778.248) scale(0.18 -0.18)">
     <defs>
      <path id="DejaVuSans-2f" d="M 1625 4666 
L 2156 4666 
L 531 -594 
L 0 -594 
L 1625 4666 
z
" transform="scale(0.015625)"/>
      <path id="DejaVuSans-6b" d="M 581 4863 
L 1159 4863 
L 1159 1991 
L 2875 3500 
L 3609 3500 
L 1753 1863 
L 3688 0 
L 2938 0 
L 1159 1709 
L 1159 0 
L 581 0 
L 581 4863 
z
" transform="scale(0.015625)"/>
     </defs>
     <use xlink:href="#DejaVuSans-62"/>
     <use xlink:href="#DejaVuSans-75" x="63.476562"/>
     <use xlink:href="#DejaVuSans-74" x="126.855469"/>
     <use xlink:href="#DejaVuSans-20" x="166.064453"/>
     <use xlink:href="#DejaVuSans-72" x="197.851562"/>
     <use xlink:href="#DejaVuSans-65" x="236.714844"/>
     <use xlink:href="#DejaVuSans-70" x="298.238281"/>
     <use xlink:href="#DejaVuSans-65" x="361.714844"/>
     <use xlink:href="#DejaVuSans-74" x="423.238281"/>
     <use xlink:href="#DejaVuSans-69" x="462.447266"/>
     <use xlink:href="#DejaVuSans-74" x="490.230469"/>
     <use xlink:href="#DejaVuSans-69" x="529.439453"/>
     <use xlink:href="#DejaVuSans-76" x="557.222656"/>
     <use xlink:href="#DejaVuSans-65" x="616.402344"/>
     <use xlink:href="#DejaVuSans-2f" x="677.925781"/>
     <use xlink:href="#DejaVuSans-20" x="711.617188"/>
     <use xlink:href="#DejaVuSans-6d" x="743.404297"/>
     <use xlink:href="#DejaVuSans-75" x="840.816406"/>
     <use xlink:href="#DejaVuSans-6e" x="904.195312"/>
     <use xlink:href="#DejaVuSans-64" x="967.574219"/>
     <use xlink:href="#DejaVuSans-61" x="1031.050781"/>
     <use xlink:href="#DejaVuSans-6e" x="1092.330078"/>
     <use xlink:href="#DejaVuSans-65" x="1155.708984"/>
     <use xlink:href="#DejaVuSans-20" x="1217.232422"/>
     <use xlink:href="#DejaVuSans-74" x="1249.019531"/>
     <use xlink:href="#DejaVuSans-61" x="1288.228516"/>
     <use xlink:href="#DejaVuSans-73" x="1349.507812"/>
     <use xlink:href="#DejaVuSans-6b" x="1401.607422"/>
     <use xlink:href="#DejaVuSans-73" x="1459.517578"/>
    </g>
   </g>
   <g id="text_18">
    <!-- Eliminating time employees -->
    <g transform="translate(29.592 841.251938) scale(0.18 -0.18)">
     <defs>
      <path id="DejaVuSans-45" d="M 628 4666 
L 3578 4666 
L 3578 4134 
L 1259 4134 
L 1259 2753 
L 3481 2753 
L 3481 2222 
L 1259 2222 
L 1259 531 
L 3634 531 
L 3634 0 
L 628 0 
L 628 4666 
z
" transform="scale(0.015625)"/>
     </defs>
     <use xlink:href="#DejaVuSans-45"/>
     <use xlink:href="#DejaVuSans-6c" x="63.183594"/>
     <use xlink:href="#DejaVuSans-69" x="90.966797"/>
     <use xlink:href="#DejaVuSans-6d" x="118.75"/>
     <use xlink:href="#DejaVuSans-69" x="216.162109"/>
     <use xlink:href="#DejaVuSans-6e" x="243.945312"/>
     <use xlink:href="#DejaVuSans-61" x="307.324219"/>
     <use xlink:href="#DejaVuSans-74" x="368.603516"/>
     <use xlink:href="#DejaVuSans-69" x="407.8125"/>
     <use xlink:href="#DejaVuSans-6e" x="435.595703"/>
     <use xlink:href="#DejaVuSans-67" x="498.974609"/>
     <use xlink:href="#DejaVuSans-20" x="562.451172"/>
     <use xlink:href="#DejaVuSans-74" x="594.238281"/>
     <use xlink:href="#DejaVuSans-69" x="633.447266"/>
     <use xlink:href="#DejaVuSans-6d" x="661.230469"/>
     <use xlink:href="#DejaVuSans-65" x="758.642578"/>
     <use xlink:href="#DejaVuSans-20" x="820.166016"/>
     <use xlink:href="#DejaVuSans-65" x="851.953125"/>
     <use xlink:href="#DejaVuSans-6d" x="913.476562"/>
     <use xlink:href="#DejaVuSans-70" x="1010.888672"/>
     <use xlink:href="#DejaVuSans-6c" x="1074.365234"/>
     <use xlink:href="#DejaVuSans-6f" x="1102.148438"/>
     <use xlink:href="#DejaVuSans-79" x="1163.330078"/>
     <use xlink:href="#DejaVuSans-65" x="1222.509766"/>
     <use xlink:href="#DejaVuSans-65" x="1284.033203"/>
     <use xlink:href="#DejaVuSans-73" x="1345.556641"/>
    </g>
    <!-- spend on low-value activites -->
    <g transform="translate(29.592 861.408) scale(0.18 -0.18)">
     <use xlink:href="#DejaVuSans-73"/>
     <use xlink:href="#DejaVuSans-70" x="52.099609"/>
     <use xlink:href="#DejaVuSans-65" x="115.576172"/>
     <use xlink:href="#DejaVuSans-6e" x="177.099609"/>
     <use xlink:href="#DejaVuSans-64" x="240.478516"/>
     <use xlink:href="#DejaVuSans-20" x="303.955078"/>
     <use xlink:href="#DejaVuSans-6f" x="335.742188"/>
     <use xlink:href="#DejaVuSans-6e" x="396.923828"/>
     <use xlink:href="#DejaVuSans-20" x="460.302734"/>
     <use xlink:href="#DejaVuSans-6c" x="492.089844"/>
     <use xlink:href="#DejaVuSans-6f" x="519.873047"/>
     <use xlink:href="#DejaVuSans-77" x="581.054688"/>
     <use xlink:href="#DejaVuSans-2d" x="662.841797"/>
     <use xlink:href="#DejaVuSans-76" x="696.300781"/>
     <use xlink:href="#DejaVuSans-61" x="755.480469"/>
     <use xlink:href="#DejaVuSans-6c" x="816.759766"/>
     <use xlink:href="#DejaVuSans-75" x="844.542969"/>
     <use xlink:href="#DejaVuSans-65" x="907.921875"/>
     <use xlink:href="#DejaVuSans-20" x="969.445312"/>
     <use xlink:href="#DejaVuSans-61" x="1001.232422"/>
     <use xlink:href="#DejaVuSans-63" x="1062.511719"/>
     <use xlink:href="#DejaVuSans-74" x="1117.492188"/>
     <use xlink:href="#DejaVuSans-69" x="1156.701172"/>
     <use xlink:href="#DejaVuSans-76" x="1184.484375"/>
     <use xlink:href="#DejaVuSans-69" x="1243.664062"/>
     <use xlink:href="#DejaVuSans-74" x="1271.447266"/>
     <use xlink:href="#DejaVuSans-65" x="1310.65625"/>
     <use xlink:href="#DejaVuSans-73" x="1372.179688"/>
    </g>
   </g>
   <g id="text_19">
    <!-- Augmenting/ -->
    <g transform="translate(29.592 746.251875) scale(0.18 -0.18)">
     <defs>
      <path id="DejaVuSans-41" d="M 2188 4044 
L 1331 1722 
L 3047 1722 
L 2188 4044 
z
M 1831 4666 
L 2547 4666 
L 4325 0 
L 3669 0 
L 3244 1197 
L 1141 1197 
L 716 0 
L 50 0 
L 1831 4666 
z
" transform="scale(0.015625)"/>
     </defs>
     <use xlink:href="#DejaVuSans-41"/>
     <use xlink:href="#DejaVuSans-75" x="68.408203"/>
     <use xlink:href="#DejaVuSans-67" x="131.787109"/>
     <use xlink:href="#DejaVuSans-6d" x="195.263672"/>
     <use xlink:href="#DejaVuSans-65" x="292.675781"/>
     <use xlink:href="#DejaVuSans-6e" x="354.199219"/>
     <use xlink:href="#DejaVuSans-74" x="417.578125"/>
     <use xlink:href="#DejaVuSans-69" x="456.787109"/>
     <use xlink:href="#DejaVuSans-6e" x="484.570312"/>
     <use xlink:href="#DejaVuSans-67" x="547.949219"/>
     <use xlink:href="#DejaVuSans-2f" x="611.425781"/>
    </g>
    <!-- enhancing human -->
    <g transform="translate(29.592 766.407938) scale(0.18 -0.18)">
     <use xlink:href="#DejaVuSans-65"/>
     <use xlink:href="#DejaVuSans-6e" x="61.523438"/>
     <use xlink:href="#DejaVuSans-68" x="124.902344"/>
     <use xlink:href="#DejaVuSans-61" x="188.28125"/>
     <use xlink:href="#DejaVuSans-6e" x="249.560547"/>
     <use xlink:href="#DejaVuSans-63" x="312.939453"/>
     <use xlink:href="#DejaVuSans-69" x="367.919922"/>
     <use xlink:href="#DejaVuSans-6e" x="395.703125"/>
     <use xlink:href="#DejaVuSans-67" x="459.082031"/>
     <use xlink:href="#DejaVuSans-20" x="522.558594"/>
     <use xlink:href="#DejaVuSans-68" x="554.345703"/>
     <use xlink:href="#DejaVuSans-75" x="617.724609"/>
     <use xlink:href="#DejaVuSans-6d" x="681.103516"/>
     <use xlink:href="#DejaVuSans-61" x="778.515625"/>
     <use xlink:href="#DejaVuSans-6e" x="839.794922"/>
    </g>
    <!-- capacities -->
    <g transform="translate(29.592 786.564) scale(0.18 -0.18)">
     <use xlink:href="#DejaVuSans-63"/>
     <use xlink:href="#DejaVuSans-61" x="54.980469"/>
     <use xlink:href="#DejaVuSans-70" x="116.259766"/>
     <use xlink:href="#DejaVuSans-61" x="179.736328"/>
     <use xlink:href="#DejaVuSans-63" x="241.015625"/>
     <use xlink:href="#DejaVuSans-69" x="295.996094"/>
     <use xlink:href="#DejaVuSans-74" x="323.779297"/>
     <use xlink:href="#DejaVuSans-69" x="362.988281"/>
     <use xlink:href="#DejaVuSans-65" x="390.771484"/>
     <use xlink:href="#DejaVuSans-73" x="452.294922"/>
    </g>
   </g>
   <g id="text_20">
    <!-- Accelerating -->
    <g transform="translate(29.592 563.299875) scale(0.18 -0.18)">
     <use xlink:href="#DejaVuSans-41"/>
     <use xlink:href="#DejaVuSans-63" x="66.658203"/>
     <use xlink:href="#DejaVuSans-63" x="121.638672"/>
     <use xlink:href="#DejaVuSans-65" x="176.619141"/>
     <use xlink:href="#DejaVuSans-6c" x="238.142578"/>
     <use xlink:href="#DejaVuSans-65" x="265.925781"/>
     <use xlink:href="#DejaVuSans-72" x="327.449219"/>
     <use xlink:href="#DejaVuSans-61" x="368.5625"/>
     <use xlink:href="#DejaVuSans-74" x="429.841797"/>
     <use xlink:href="#DejaVuSans-69" x="469.050781"/>
     <use xlink:href="#DejaVuSans-6e" x="496.833984"/>
     <use xlink:href="#DejaVuSans-67" x="560.212891"/>
    </g>
    <!-- employees' pace -->
    <g transform="translate(29.592 583.455937) scale(0.18 -0.18)">
     <defs>
      <path id="DejaVuSans-27" d="M 1147 4666 
L 1147 2931 
L 616 2931 
L 616 4666 
L 1147 4666 
z
" transform="scale(0.015625)"/>
     </defs>
     <use xlink:href="#DejaVuSans-65"/>
     <use xlink:href="#DejaVuSans-6d" x="61.523438"/>
     <use xlink:href="#DejaVuSans-70" x="158.935547"/>
     <use xlink:href="#DejaVuSans-6c" x="222.412109"/>
     <use xlink:href="#DejaVuSans-6f" x="250.195312"/>
     <use xlink:href="#DejaVuSans-79" x="311.376953"/>
     <use xlink:href="#DejaVuSans-65" x="370.556641"/>
     <use xlink:href="#DejaVuSans-65" x="432.080078"/>
     <use xlink:href="#DejaVuSans-73" x="493.603516"/>
     <use xlink:href="#DejaVuSans-27" x="545.703125"/>
     <use xlink:href="#DejaVuSans-20" x="573.193359"/>
     <use xlink:href="#DejaVuSans-70" x="604.980469"/>
     <use xlink:href="#DejaVuSans-61" x="668.457031"/>
     <use xlink:href="#DejaVuSans-63" x="729.736328"/>
     <use xlink:href="#DejaVuSans-65" x="784.716797"/>
    </g>
    <!-- of work -->
    <g transform="translate(29.592 603.612) scale(0.18 -0.18)">
     <use xlink:href="#DejaVuSans-6f"/>
     <use xlink:href="#DejaVuSans-66" x="61.181641"/>
     <use xlink:href="#DejaVuSans-20" x="96.386719"/>
     <use xlink:href="#DejaVuSans-77" x="128.173828"/>
     <use xlink:href="#DejaVuSans-6f" x="209.960938"/>
     <use xlink:href="#DejaVuSans-72" x="271.142578"/>
     <use xlink:href="#DejaVuSans-6b" x="312.255859"/>
    </g>
   </g>
   <g id="text_21">
    <!-- Enabling employees -->
    <g transform="translate(29.592 396.979875) scale(0.18 -0.18)">
     <use xlink:href="#DejaVuSans-45"/>
     <use xlink:href="#DejaVuSans-6e" x="63.183594"/>
     <use xlink:href="#DejaVuSans-61" x="126.5625"/>
     <use xlink:href="#DejaVuSans-62" x="187.841797"/>
     <use xlink:href="#DejaVuSans-6c" x="251.318359"/>
     <use xlink:href="#DejaVuSans-69" x="279.101562"/>
     <use xlink:href="#DejaVuSans-6e" x="306.884766"/>
     <use xlink:href="#DejaVuSans-67" x="370.263672"/>
     <use xlink:href="#DejaVuSans-20" x="433.740234"/>
     <use xlink:href="#DejaVuSans-65" x="465.527344"/>
     <use xlink:href="#DejaVuSans-6d" x="527.050781"/>
     <use xlink:href="#DejaVuSans-70" x="624.462891"/>
     <use xlink:href="#DejaVuSans-6c" x="687.939453"/>
     <use xlink:href="#DejaVuSans-6f" x="715.722656"/>
     <use xlink:href="#DejaVuSans-79" x="776.904297"/>
     <use xlink:href="#DejaVuSans-65" x="836.083984"/>
     <use xlink:href="#DejaVuSans-65" x="897.607422"/>
     <use xlink:href="#DejaVuSans-73" x="959.130859"/>
    </g>
    <!-- to access and recall -->
    <g transform="translate(29.592 417.135938) scale(0.18 -0.18)">
     <use xlink:href="#DejaVuSans-74"/>
     <use xlink:href="#DejaVuSans-6f" x="39.208984"/>
     <use xlink:href="#DejaVuSans-20" x="100.390625"/>
     <use xlink:href="#DejaVuSans-61" x="132.177734"/>
     <use xlink:href="#DejaVuSans-63" x="193.457031"/>
     <use xlink:href="#DejaVuSans-63" x="248.4375"/>
     <use xlink:href="#DejaVuSans-65" x="303.417969"/>
     <use xlink:href="#DejaVuSans-73" x="364.941406"/>
     <use xlink:href="#DejaVuSans-73" x="417.041016"/>
     <use xlink:href="#DejaVuSans-20" x="469.140625"/>
     <use xlink:href="#DejaVuSans-61" x="500.927734"/>
     <use xlink:href="#DejaVuSans-6e" x="562.207031"/>
     <use xlink:href="#DejaVuSans-64" x="625.585938"/>
     <use xlink:href="#DejaVuSans-20" x="689.0625"/>
     <use xlink:href="#DejaVuSans-72" x="720.849609"/>
     <use xlink:href="#DejaVuSans-65" x="759.712891"/>
     <use xlink:href="#DejaVuSans-63" x="821.236328"/>
     <use xlink:href="#DejaVuSans-61" x="876.216797"/>
     <use xlink:href="#DejaVuSans-6c" x="937.496094"/>
     <use xlink:href="#DejaVuSans-6c" x="965.279297"/>
    </g>
    <!-- institutional knowledge -->
    <g transform="translate(29.592 437.292) scale(0.18 -0.18)">
     <use xlink:href="#DejaVuSans-69"/>
     <use xlink:href="#DejaVuSans-6e" x="27.783203"/>
     <use xlink:href="#DejaVuSans-73" x="91.162109"/>
     <use xlink:href="#DejaVuSans-74" x="143.261719"/>
     <use xlink:href="#DejaVuSans-69" x="182.470703"/>
     <use xlink:href="#DejaVuSans-74" x="210.253906"/>
     <use xlink:href="#DejaVuSans-75" x="249.462891"/>
     <use xlink:href="#DejaVuSans-74" x="312.841797"/>
     <use xlink:href="#DejaVuSans-69" x="352.050781"/>
     <use xlink:href="#DejaVuSans-6f" x="379.833984"/>
     <use xlink:href="#DejaVuSans-6e" x="441.015625"/>
     <use xlink:href="#DejaVuSans-61" x="504.394531"/>
     <use xlink:href="#DejaVuSans-6c" x="565.673828"/>
     <use xlink:href="#DejaVuSans-20" x="593.457031"/>
     <use xlink:href="#DejaVuSans-6b" x="625.244141"/>
     <use xlink:href="#DejaVuSans-6e" x="683.154297"/>
     <use xlink:href="#DejaVuSans-6f" x="746.533203"/>
     <use xlink:href="#DejaVuSans-77" x="807.714844"/>
     <use xlink:href="#DejaVuSans-6c" x="889.501953"/>
     <use xlink:href="#DejaVuSans-65" x="917.285156"/>
     <use xlink:href="#DejaVuSans-64" x="978.808594"/>
     <use xlink:href="#DejaVuSans-67" x="1042.285156"/>
     <use xlink:href="#DejaVuSans-65" x="1105.761719"/>
    </g>
   </g>
   <g id="text_22">
    <!-- Helping me understand if employees' -->
    <g transform="translate(29.592 284.079938) scale(0.18 -0.18)">
     <use xlink:href="#DejaVuSans-48"/>
     <use xlink:href="#DejaVuSans-65" x="75.195312"/>
     <use xlink:href="#DejaVuSans-6c" x="136.71875"/>
     <use xlink:href="#DejaVuSans-70" x="164.501953"/>
     <use xlink:href="#DejaVuSans-69" x="227.978516"/>
     <use xlink:href="#DejaVuSans-6e" x="255.761719"/>
     <use xlink:href="#DejaVuSans-67" x="319.140625"/>
     <use xlink:href="#DejaVuSans-20" x="382.617188"/>
     <use xlink:href="#DejaVuSans-6d" x="414.404297"/>
     <use xlink:href="#DejaVuSans-65" x="511.816406"/>
     <use xlink:href="#DejaVuSans-20" x="573.339844"/>
     <use xlink:href="#DejaVuSans-75" x="605.126953"/>
     <use xlink:href="#DejaVuSans-6e" x="668.505859"/>
     <use xlink:href="#DejaVuSans-64" x="731.884766"/>
     <use xlink:href="#DejaVuSans-65" x="795.361328"/>
     <use xlink:href="#DejaVuSans-72" x="856.884766"/>
     <use xlink:href="#DejaVuSans-73" x="897.998047"/>
     <use xlink:href="#DejaVuSans-74" x="950.097656"/>
     <use xlink:href="#DejaVuSans-61" x="989.306641"/>
     <use xlink:href="#DejaVuSans-6e" x="1050.585938"/>
     <use xlink:href="#DejaVuSans-64" x="1113.964844"/>
     <use xlink:href="#DejaVuSans-20" x="1177.441406"/>
     <use xlink:href="#DejaVuSans-69" x="1209.228516"/>
     <use xlink:href="#DejaVuSans-66" x="1237.011719"/>
     <use xlink:href="#DejaVuSans-20" x="1272.216797"/>
     <use xlink:href="#DejaVuSans-65" x="1304.003906"/>
     <use xlink:href="#DejaVuSans-6d" x="1365.527344"/>
     <use xlink:href="#DejaVuSans-70" x="1462.939453"/>
     <use xlink:href="#DejaVuSans-6c" x="1526.416016"/>
     <use xlink:href="#DejaVuSans-6f" x="1554.199219"/>
     <use xlink:href="#DejaVuSans-79" x="1615.380859"/>
     <use xlink:href="#DejaVuSans-65" x="1674.560547"/>
     <use xlink:href="#DejaVuSans-65" x="1736.083984"/>
     <use xlink:href="#DejaVuSans-73" x="1797.607422"/>
     <use xlink:href="#DejaVuSans-27" x="1849.707031"/>
    </g>
    <!-- work aligns with company goals -->
    <g transform="translate(29.592 304.236) scale(0.18 -0.18)">
     <use xlink:href="#DejaVuSans-77"/>
     <use xlink:href="#DejaVuSans-6f" x="81.787109"/>
     <use xlink:href="#DejaVuSans-72" x="142.96875"/>
     <use xlink:href="#DejaVuSans-6b" x="184.082031"/>
     <use xlink:href="#DejaVuSans-20" x="241.992188"/>
     <use xlink:href="#DejaVuSans-61" x="273.779297"/>
     <use xlink:href="#DejaVuSans-6c" x="335.058594"/>
     <use xlink:href="#DejaVuSans-69" x="362.841797"/>
     <use xlink:href="#DejaVuSans-67" x="390.625"/>
     <use xlink:href="#DejaVuSans-6e" x="454.101562"/>
     <use xlink:href="#DejaVuSans-73" x="517.480469"/>
     <use xlink:href="#DejaVuSans-20" x="569.580078"/>
     <use xlink:href="#DejaVuSans-77" x="601.367188"/>
     <use xlink:href="#DejaVuSans-69" x="683.154297"/>
     <use xlink:href="#DejaVuSans-74" x="710.9375"/>
     <use xlink:href="#DejaVuSans-68" x="750.146484"/>
     <use xlink:href="#DejaVuSans-20" x="813.525391"/>
     <use xlink:href="#DejaVuSans-63" x="845.3125"/>
     <use xlink:href="#DejaVuSans-6f" x="900.292969"/>
     <use xlink:href="#DejaVuSans-6d" x="961.474609"/>
     <use xlink:href="#DejaVuSans-70" x="1058.886719"/>
     <use xlink:href="#DejaVuSans-61" x="1122.363281"/>
     <use xlink:href="#DejaVuSans-6e" x="1183.642578"/>
     <use xlink:href="#DejaVuSans-79" x="1247.021484"/>
     <use xlink:href="#DejaVuSans-20" x="1306.201172"/>
     <use xlink:href="#DejaVuSans-67" x="1337.988281"/>
     <use xlink:href="#DejaVuSans-6f" x="1401.464844"/>
     <use xlink:href="#DejaVuSans-61" x="1462.646484"/>
     <use xlink:href="#DejaVuSans-6c" x="1523.925781"/>
     <use xlink:href="#DejaVuSans-73" x="1551.708984"/>
    </g>
   </g>
   <g id="text_23">
    <!-- Removing the coordination challenges with -->
    <g transform="translate(653.292 250.815938) scale(0.18 -0.18)">
     <defs>
      <path id="DejaVuSans-52" d="M 2841 2188 
Q 3044 2119 3236 1894 
Q 3428 1669 3622 1275 
L 4263 0 
L 3584 0 
L 2988 1197 
Q 2756 1666 2539 1819 
Q 2322 1972 1947 1972 
L 1259 1972 
L 1259 0 
L 628 0 
L 628 4666 
L 2053 4666 
Q 2853 4666 3247 4331 
Q 3641 3997 3641 3322 
Q 3641 2881 3436 2590 
Q 3231 2300 2841 2188 
z
M 1259 4147 
L 1259 2491 
L 2053 2491 
Q 2509 2491 2742 2702 
Q 2975 2913 2975 3322 
Q 2975 3731 2742 3939 
Q 2509 4147 2053 4147 
L 1259 4147 
z
" transform="scale(0.015625)"/>
     </defs>
     <use xlink:href="#DejaVuSans-52"/>
     <use xlink:href="#DejaVuSans-65" x="64.982422"/>
     <use xlink:href="#DejaVuSans-6d" x="126.505859"/>
     <use xlink:href="#DejaVuSans-6f" x="223.917969"/>
     <use xlink:href="#DejaVuSans-76" x="285.099609"/>
     <use xlink:href="#DejaVuSans-69" x="344.279297"/>
     <use xlink:href="#DejaVuSans-6e" x="372.0625"/>
     <use xlink:href="#DejaVuSans-67" x="435.441406"/>
     <use xlink:href="#DejaVuSans-20" x="498.917969"/>
     <use xlink:href="#DejaVuSans-74" x="530.705078"/>
     <use xlink:href="#DejaVuSans-68" x="569.914062"/>
     <use xlink:href="#DejaVuSans-65" x="633.292969"/>
     <use xlink:href="#DejaVuSans-20" x="694.816406"/>
     <use xlink:href="#DejaVuSans-63" x="726.603516"/>
     <use xlink:href="#DejaVuSans-6f" x="781.583984"/>
     <use xlink:href="#DejaVuSans-6f" x="842.765625"/>
     <use xlink:href="#DejaVuSans-72" x="903.947266"/>
     <use xlink:href="#DejaVuSans-64" x="943.310547"/>
     <use xlink:href="#DejaVuSans-69" x="1006.787109"/>
     <use xlink:href="#DejaVuSans-6e" x="1034.570312"/>
     <use xlink:href="#DejaVuSans-61" x="1097.949219"/>
     <use xlink:href="#DejaVuSans-74" x="1159.228516"/>
     <use xlink:href="#DejaVuSans-69" x="1198.4375"/>
     <use xlink:href="#DejaVuSans-6f" x="1226.220703"/>
     <use xlink:href="#DejaVuSans-6e" x="1287.402344"/>
     <use xlink:href="#DejaVuSans-20" x="1350.78125"/>
     <use xlink:href="#DejaVuSans-63" x="1382.568359"/>
     <use xlink:href="#DejaVuSans-68" x="1437.548828"/>
     <use xlink:href="#DejaVuSans-61" x="1500.927734"/>
     <use xlink:href="#DejaVuSans-6c" x="1562.207031"/>
     <use xlink:href="#DejaVuSans-6c" x="1589.990234"/>
     <use xlink:href="#DejaVuSans-65" x="1617.773438"/>
     <use xlink:href="#DejaVuSans-6e" x="1679.296875"/>
     <use xlink:href="#DejaVuSans-67" x="1742.675781"/>
     <use xlink:href="#DejaVuSans-65" x="1806.152344"/>
     <use xlink:href="#DejaVuSans-73" x="1867.675781"/>
     <use xlink:href="#DejaVuSans-20" x="1919.775391"/>
     <use xlink:href="#DejaVuSans-77" x="1951.5625"/>
     <use xlink:href="#DejaVuSans-69" x="2033.349609"/>
     <use xlink:href="#DejaVuSans-74" x="2061.132812"/>
     <use xlink:href="#DejaVuSans-68" x="2100.341797"/>
    </g>
    <!-- hybrid work(e.g. scheduling virtual meetings) -->
    <g transform="translate(653.292 270.972) scale(0.18 -0.18)">
     <defs>
      <path id="DejaVuSans-2e" d="M 684 794 
L 1344 794 
L 1344 0 
L 684 0 
L 684 794 
z
" transform="scale(0.015625)"/>
     </defs>
     <use xlink:href="#DejaVuSans-68"/>
     <use xlink:href="#DejaVuSans-79" x="63.378906"/>
     <use xlink:href="#DejaVuSans-62" x="122.558594"/>
     <use xlink:href="#DejaVuSans-72" x="186.035156"/>
     <use xlink:href="#DejaVuSans-69" x="227.148438"/>
     <use xlink:href="#DejaVuSans-64" x="254.931641"/>
     <use xlink:href="#DejaVuSans-20" x="318.408203"/>
     <use xlink:href="#DejaVuSans-77" x="350.195312"/>
     <use xlink:href="#DejaVuSans-6f" x="431.982422"/>
     <use xlink:href="#DejaVuSans-72" x="493.164062"/>
     <use xlink:href="#DejaVuSans-6b" x="534.277344"/>
     <use xlink:href="#DejaVuSans-28" x="592.1875"/>
     <use xlink:href="#DejaVuSans-65" x="631.201172"/>
     <use xlink:href="#DejaVuSans-2e" x="692.724609"/>
     <use xlink:href="#DejaVuSans-67" x="724.511719"/>
     <use xlink:href="#DejaVuSans-2e" x="787.988281"/>
     <use xlink:href="#DejaVuSans-20" x="819.775391"/>
     <use xlink:href="#DejaVuSans-73" x="851.5625"/>
     <use xlink:href="#DejaVuSans-63" x="903.662109"/>
     <use xlink:href="#DejaVuSans-68" x="958.642578"/>
     <use xlink:href="#DejaVuSans-65" x="1022.021484"/>
     <use xlink:href="#DejaVuSans-64" x="1083.544922"/>
     <use xlink:href="#DejaVuSans-75" x="1147.021484"/>
     <use xlink:href="#DejaVuSans-6c" x="1210.400391"/>
     <use xlink:href="#DejaVuSans-69" x="1238.183594"/>
     <use xlink:href="#DejaVuSans-6e" x="1265.966797"/>
     <use xlink:href="#DejaVuSans-67" x="1329.345703"/>
     <use xlink:href="#DejaVuSans-20" x="1392.822266"/>
     <use xlink:href="#DejaVuSans-76" x="1424.609375"/>
     <use xlink:href="#DejaVuSans-69" x="1483.789062"/>
     <use xlink:href="#DejaVuSans-72" x="1511.572266"/>
     <use xlink:href="#DejaVuSans-74" x="1552.685547"/>
     <use xlink:href="#DejaVuSans-75" x="1591.894531"/>
     <use xlink:href="#DejaVuSans-61" x="1655.273438"/>
     <use xlink:href="#DejaVuSans-6c" x="1716.552734"/>
     <use xlink:href="#DejaVuSans-20" x="1744.335938"/>
     <use xlink:href="#DejaVuSans-6d" x="1776.123047"/>
     <use xlink:href="#DejaVuSans-65" x="1873.535156"/>
     <use xlink:href="#DejaVuSans-65" x="1935.058594"/>
     <use xlink:href="#DejaVuSans-74" x="1996.582031"/>
     <use xlink:href="#DejaVuSans-69" x="2035.791016"/>
     <use xlink:href="#DejaVuSans-6e" x="2063.574219"/>
     <use xlink:href="#DejaVuSans-67" x="2126.953125"/>
     <use xlink:href="#DejaVuSans-73" x="2190.429688"/>
     <use xlink:href="#DejaVuSans-29" x="2242.529297"/>
    </g>
   </g>
   <g id="text_24">
    <!-- Factors business leaders value most about AI -->
    <g style="fill: #0ea07c" transform="translate(29.592 171.18) scale(0.32 -0.32)">
     <defs>
      <path id="DejaVuSans-Bold-46" d="M 588 4666 
L 3834 4666 
L 3834 3756 
L 1791 3756 
L 1791 2888 
L 3713 2888 
L 3713 1978 
L 1791 1978 
L 1791 0 
L 588 0 
L 588 4666 
z
" transform="scale(0.015625)"/>
      <path id="DejaVuSans-Bold-62" d="M 2400 722 
Q 2759 722 2948 984 
Q 3138 1247 3138 1747 
Q 3138 2247 2948 2509 
Q 2759 2772 2400 2772 
Q 2041 2772 1848 2508 
Q 1656 2244 1656 1747 
Q 1656 1250 1848 986 
Q 2041 722 2400 722 
z
M 1656 2988 
Q 1888 3294 2169 3439 
Q 2450 3584 2816 3584 
Q 3463 3584 3878 3070 
Q 4294 2556 4294 1747 
Q 4294 938 3878 423 
Q 3463 -91 2816 -91 
Q 2450 -91 2169 54 
Q 1888 200 1656 506 
L 1656 0 
L 538 0 
L 538 4863 
L 1656 4863 
L 1656 2988 
z
" transform="scale(0.015625)"/>
      <path id="DejaVuSans-Bold-41" d="M 3419 850 
L 1538 850 
L 1241 0 
L 31 0 
L 1759 4666 
L 3194 4666 
L 4922 0 
L 3713 0 
L 3419 850 
z
M 1838 1716 
L 3116 1716 
L 2478 3572 
L 1838 1716 
z
" transform="scale(0.015625)"/>
     </defs>
     <use xlink:href="#DejaVuSans-Bold-46"/>
     <use xlink:href="#DejaVuSans-Bold-61" x="62.435547"/>
     <use xlink:href="#DejaVuSans-Bold-63" x="129.916016"/>
     <use xlink:href="#DejaVuSans-Bold-74" x="189.193359"/>
     <use xlink:href="#DejaVuSans-Bold-6f" x="236.996094"/>
     <use xlink:href="#DejaVuSans-Bold-72" x="305.697266"/>
     <use xlink:href="#DejaVuSans-Bold-73" x="355.013672"/>
     <use xlink:href="#DejaVuSans-Bold-20" x="414.535156"/>
     <use xlink:href="#DejaVuSans-Bold-62" x="449.349609"/>
     <use xlink:href="#DejaVuSans-Bold-75" x="520.931641"/>
     <use xlink:href="#DejaVuSans-Bold-73" x="592.123047"/>
     <use xlink:href="#DejaVuSans-Bold-69" x="651.644531"/>
     <use xlink:href="#DejaVuSans-Bold-6e" x="685.921875"/>
     <use xlink:href="#DejaVuSans-Bold-65" x="757.113281"/>
     <use xlink:href="#DejaVuSans-Bold-73" x="824.935547"/>
     <use xlink:href="#DejaVuSans-Bold-73" x="884.457031"/>
     <use xlink:href="#DejaVuSans-Bold-20" x="943.978516"/>
     <use xlink:href="#DejaVuSans-Bold-6c" x="978.792969"/>
     <use xlink:href="#DejaVuSans-Bold-65" x="1013.070312"/>
     <use xlink:href="#DejaVuSans-Bold-61" x="1080.892578"/>
     <use xlink:href="#DejaVuSans-Bold-64" x="1148.373047"/>
     <use xlink:href="#DejaVuSans-Bold-65" x="1219.955078"/>
     <use xlink:href="#DejaVuSans-Bold-72" x="1287.777344"/>
     <use xlink:href="#DejaVuSans-Bold-73" x="1337.09375"/>
     <use xlink:href="#DejaVuSans-Bold-20" x="1396.615234"/>
     <use xlink:href="#DejaVuSans-Bold-76" x="1431.429688"/>
     <use xlink:href="#DejaVuSans-Bold-61" x="1496.615234"/>
     <use xlink:href="#DejaVuSans-Bold-6c" x="1564.095703"/>
     <use xlink:href="#DejaVuSans-Bold-75" x="1598.373047"/>
     <use xlink:href="#DejaVuSans-Bold-65" x="1669.564453"/>
     <use xlink:href="#DejaVuSans-Bold-20" x="1737.386719"/>
     <use xlink:href="#DejaVuSans-Bold-6d" x="1772.201172"/>
     <use xlink:href="#DejaVuSans-Bold-6f" x="1876.400391"/>
     <use xlink:href="#DejaVuSans-Bold-73" x="1945.101562"/>
     <use xlink:href="#DejaVuSans-Bold-74" x="2004.623047"/>
     <use xlink:href="#DejaVuSans-Bold-20" x="2052.425781"/>
     <use xlink:href="#DejaVuSans-Bold-61" x="2087.240234"/>
     <use xlink:href="#DejaVuSans-Bold-62" x="2154.720703"/>
     <use xlink:href="#DejaVuSans-Bold-6f" x="2226.302734"/>
     <use xlink:href="#DejaVuSans-Bold-75" x="2295.003906"/>
     <use xlink:href="#DejaVuSans-Bold-74" x="2366.195312"/>
     <use xlink:href="#DejaVuSans-Bold-20" x="2413.998047"/>
     <use xlink:href="#DejaVuSans-Bold-41" x="2448.8125"/>
     <use xlink:href="#DejaVuSans-Bold-49" x="2526.205078"/>
    </g>
   </g>
  </g>
 </g>
 <defs>
  <clipPath id="p7ccaceee06">
   <path d="M 969.3 545.4 
C 969.3 490.797644 958.544527 436.726228 937.64911 386.280229 
C 916.753693 335.83423 886.124696 289.994696 847.515 251.385 
C 808.905304 212.775304 763.06577 182.146307 712.619771 161.25089 
C 662.173772 140.355473 608.102356 129.6 553.5 129.6 
C 498.897644 129.6 444.826228 140.355473 394.380229 161.25089 
C 343.93423 182.146307 298.094696 212.775304 259.485 251.385 
C 220.875304 289.994696 190.246307 335.83423 169.35089 386.280229 
C 148.455473 436.726228 137.7 490.797644 137.7 545.4 
C 137.7 600.002356 148.455473 654.073772 169.35089 704.519771 
C 190.246307 754.96577 220.875304 800.805304 259.485 839.415 
C 298.094696 878.024696 343.93423 908.653693 394.380229 929.54911 
C 444.826228 950.444527 498.897644 961.2 553.5 961.2 
C 608.102356 961.2 662.173772 950.444527 712.619771 929.54911 
C 763.06577 908.653693 808.905304 878.024696 847.515 839.415 
C 886.124696 800.805304 916.753693 754.96577 937.64911 704.519771 
C 958.544527 654.073772 969.3 600.002356 969.3 545.4 
M 553.5 545.4 
C 553.5 545.4 553.5 545.4 553.5 545.4 
C 553.5 545.4 553.5 545.4 553.5 545.4 
C 553.5 545.4 553.5 545.4 553.5 545.4 
C 553.5 545.4 553.5 545.4 553.5 545.4 
C 553.5 545.4 553.5 545.4 553.5 545.4 
C 553.5 545.4 553.5 545.4 553.5 545.4 
C 553.5 545.4 553.5 545.4 553.5 545.4 
C 553.5 545.4 553.5 545.4 553.5 545.4 
C 553.5 545.4 553.5 545.4 553.5 545.4 
C 553.5 545.4 553.5 545.4 553.5 545.4 
C 553.5 545.4 553.5 545.4 553.5 545.4 
C 553.5 545.4 553.5 545.4 553.5 545.4 
C 553.5 545.4 553.5 545.4 553.5 545.4 
C 553.5 545.4 553.5 545.4 553.5 545.4 
C 553.5 545.4 553.5 545.4 553.5 545.4 
C 553.5 545.4 553.5 545.4 553.5 545.4 
z
"/>
  </clipPath>
 </defs>
</svg>
